<?xml version="1.0" encoding="utf-8"?>
<!-- Generator: Adobe Illustrator 22.0.0, SVG Export Plug-In . SVG Version: 6.00 Build 0)  -->
<svg version="1.1" id="Camada_1" xmlns="http://www.w3.org/2000/svg" xmlns:xlink="http://www.w3.org/1999/xlink" x="0px" y="0px"
	 viewBox="0 0 406.7 319.9" style="enable-background:new 0 0 406.7 319.9;" xml:space="preserve">
<style type="text/css">
	.st0{fill:#FFFFFF;}
	.st1{fill:#FCC56B;}
	.st2{fill:none;stroke:#020203;stroke-width:5.6917;stroke-linecap:round;stroke-linejoin:round;stroke-miterlimit:10;}
	.st3{fill:none;stroke:#020203;stroke-width:1.7075;stroke-linecap:round;stroke-linejoin:round;stroke-miterlimit:10;}
	.st4{fill:#FFFFFF;stroke:#FFFFFF;stroke-width:15.9369;stroke-miterlimit:10;}
	.st5{font-family:'ModernaCondensedUnicase-Light';}
	.st6{font-size:81.9609px;}
	.st7{fill:#020203;}
	.st8{fill:#F59F39;}
</style>
<circle class="st0" cx="197.5" cy="161.9" r="149.6"/>
<g>
	<g>
		<path class="st1" d="M194.5,52.3c-27.2,0.8-51.8,11.7-70.3,29.1l20.2,20.2c13.3-12.3,30.8-20,50.1-20.7V52.3z"/>
		<path class="st1" d="M200.5,265.5c27.2-0.8,51.8-11.7,70.3-29.1l-20.1-20.1c-13.3,12.3-30.8,20.1-50.2,20.8V265.5z"/>
		<path class="st1" d="M270.8,81.4c-18.4-17.4-43.1-28.4-70.3-29.1v28.6c19.3,0.7,36.8,8.5,50.1,20.7L270.8,81.4z"/>
		<path class="st1" d="M124.2,236.4c18.4,17.4,43.1,28.4,70.3,29.1v-28.4c-19.4-0.7-36.9-8.5-50.2-20.8L124.2,236.4z"/>
		<path class="st1" d="M304.1,155.9c-0.8-27.2-11.7-51.8-29.1-70.3l-20.2,20.2c12.3,13.3,20.1,30.8,20.8,50.1H304.1z"/>
		<path class="st1" d="M90.9,161.9c0.8,27.2,11.7,51.8,29.1,70.3l20.1-20.1c-12.3-13.3-20-30.8-20.7-50.2H90.9z"/>
		<path class="st1" d="M254.9,212.1l20.1,20.1c17.4-18.4,28.4-43.1,29.1-70.3h-28.5C274.9,181.2,267.2,198.8,254.9,212.1z"/>
		<path class="st1" d="M120,85.6c-17.4,18.4-28.4,43.1-29.1,70.3h28.5c0.7-19.3,8.5-36.8,20.8-50.1L120,85.6z"/>
	</g>
	<g id="XMLID_390_">
	</g>
	<path id="XMLID_281_" class="st2" d="M300.3,80.5c16.7,21.8,26.7,49.1,26.7,78.7c0,71.5-58,129.5-129.5,129.5
		c-71.5,0-129.5-58-129.5-129.5c0-29.3,9.8-56.4,26.2-78.1"/>
	<path id="XMLID_22_" class="st3" d="M317.8,159.2c0,66.4-53.9,120.3-120.3,120.3c-66.4,0-120.3-53.9-120.3-120.3
		S131.1,38.9,197.5,38.9C264,38.9,317.8,92.8,317.8,159.2z"/>
	<g>
		<text transform="matrix(1 0 0 1 32.1621 287.3517)" class="st4 st5 st6">Designer</text>
		<text transform="matrix(1 0 0 1 32.916 287.5031)" class="st7 st5 st6">Designer</text>
	</g>
	<g>
		<g>
			<path class="st7" d="M240.9,136.4c2.7-25.8-16-42.9-43.2-43.1v0c-0.1,0-0.1,0-0.2,0c-0.1,0-0.1,0-0.2,0v0
				c-27.2,0.1-45.9,17.2-43.2,43.1c2.3,22,19.7,30.8,20.5,39.2c0.7,8.3-1.1,12.7-1.2,16.3c-0.1,3.2,1.8,4.6,4.7,4.6h19.2h0.3h19.2
				c2.9,0,4.8-1.4,4.7-4.6c-0.1-3.5-1.9-8-1.2-16.3C221.1,167.2,238.6,158.4,240.9,136.4z"/>
			<g id="XMLID_265_">
				<path class="st7" d="M217.2,209.8h-39.3c-1.7,0-3.1-1.4-3.1-3.1c0-1.7,1.4-3.1,3.1-3.1h39.3c1.7,0,3.1,1.4,3.1,3.1
					C220.3,208.4,218.9,209.8,217.2,209.8z"/>
			</g>
			<g id="XMLID_260_">
				<path class="st7" d="M214.4,216.5h-33.7c-1.5,0-2.6-1.2-2.6-2.6c0-1.5,1.2-2.6,2.6-2.6h33.7c1.5,0,2.6,1.2,2.6,2.6
					C217,215.3,215.8,216.5,214.4,216.5z"/>
			</g>
			<g id="XMLID_251_">
				<path class="st7" d="M208.6,223.7h-22.2c-1.6,0-2.9-1.3-2.9-2.9c0-1.6,1.3-2.9,2.9-2.9h22.2c1.6,0,2.9,1.3,2.9,2.9
					C211.6,222.4,210.3,223.7,208.6,223.7z"/>
			</g>
			<g>
				<path class="st8" d="M198.1,108.1v32.9c2.4,0.3,4.3,2.3,4.3,4.8c0,2.7-2.2,4.8-4.8,4.8c-2.7,0-4.8-2.2-4.8-4.8
					c0-2.5,1.9-4.5,4.3-4.8v-32.9c0,0-12,35.7-19.9,45.3c0,0,9.7,7.3,9.5,14.6c-0.1,4.2-1.7,29.4-1.7,29.4h25.1
					c0,0-1.6-25.3-1.7-29.4c-0.2-7.3,9.5-14.6,9.5-14.6C210,143.8,198.1,108.1,198.1,108.1z"/>
			</g>
			<g id="XMLID_275_">
				<path class="st7" d="M219.2,202.2h-43.4c-1.9,0-3.4-1.5-3.4-3.4c0-1.9,1.5-3.4,3.4-3.4h43.4c1.9,0,3.4,1.5,3.4,3.4
					C222.6,200.7,221.1,202.2,219.2,202.2z"/>
			</g>
		</g>
	</g>
</g>
</svg>
