<?xml version="1.0" encoding="utf-8"?>
<!-- Generator: Adobe Illustrator 22.0.0, SVG Export Plug-In . SVG Version: 6.00 Build 0)  -->
<svg version="1.1" id="Camada_1" xmlns="http://www.w3.org/2000/svg" xmlns:xlink="http://www.w3.org/1999/xlink" x="0px" y="0px"
	 viewBox="0 0 785.7 592.5" style="enable-background:new 0 0 785.7 592.5;" xml:space="preserve">
<style type="text/css">
	.st0{fill:none;}
</style>
<g id="Bg">
</g>
<g id="objects">
	<g>
		<g>
			<path d="M392.4,588.8C231,588.8,99.8,457.5,99.8,296.2S231,3.6,392.4,3.6S685,134.9,685,296.2S553.8,588.8,392.4,588.8z
				 M392.4,6.1c-160,0-290.1,130.1-290.1,290.1s130.1,290.1,290.1,290.1s290.1-130.1,290.1-290.1S552.4,6.1,392.4,6.1z"/>
		</g>
		<g>
			<path class="st0" d="M363.9,282.8c-2.3-2.2-6.1-1.9-8.7-0.9c-3.6,1.3-6.7,4-8.5,7.4v0.1c-0.2,0.4-0.4,0.9-0.6,1.4
				c-3.6,9.2-1.5,14.8,7.2,19.4c1.4,0.7,3.2,1.1,5.3,1.2c3.9-6.3,6.9-13.6,7.6-18.7C366.5,289.4,366.4,285,363.9,282.8z"/>
			<path class="st0" d="M360.3,203.9c12.1-15.3,23.5-29.8,25.9-49.1c0.3-2.6,0.5-5.6-0.4-8.1c-1-2.8-2.3-3.3-3.2-3.4
				c-0.2,0-0.4,0-0.6,0c-6.3,0-21.7,12.6-46.8,48.2l-0.2,0.3c-13.9,19.7-27.3,40.7-39.9,62.6C321.9,239.8,346.4,221.6,360.3,203.9z"
				/>
			<path class="st0" d="M339.8,302c-2.4,6.9-3.8,14.6-2.3,19.3c0.9,2.6,2.3,3.2,3.4,3.4c4.1,0.9,9.3-2.4,14.4-8.8
				c-1.6-0.3-3.1-0.8-4.4-1.4C344.7,311.2,341,307.1,339.8,302z"/>
			<path class="st0" d="M384.6,289.6c-0.3,0.3-0.8,0.8-1.1,1.6c-1,2.3-1.7,4.9-2.1,7.6c1.7-2.4,3-5.2,3.2-7.9
				C384.7,290.4,384.7,289.9,384.6,289.6z"/>
			<path class="st0" d="M450.7,306.9c0.6-1.5,0.6-2.4,0.4-2.5c0,0-0.2-0.1-0.4-0.1c-0.1,0-0.2,0-0.4,0.1c-0.7,0.2-1.3,0.7-1.9,1.2
				c-3.7,3.1-5.9,7.5-6.4,12.2C446.2,314.9,449.1,310.7,450.7,306.9z"/>
			<path d="M784.8,318.9c-0.6-1.2-2.1-1.8-3.3-1.2c-29.1,13.8-52.2,3.3-79-8.8c-6.8-3.1-13.8-6.3-21.1-9.1
				c-35.8-14-74-27.3-113.2-23.4c-28.4,2.8-54,14.7-72.1,33.5c-2.2,2.3-4.3,4.7-6.3,7c-4,4.6-7.8,9-12.4,12.6
				c-7.6,6.1-16.4,8.5-23.3,6.4c-6.1-1.8-10.4-6.5-11.7-12.8c5.5-2.8,10.3-7.9,12.9-14.4c1.4-3.4,1.1-6.3-0.8-8.1
				c-1.4-1.3-3.5-1.7-5.5-1.2c-1.6,0.4-2.9,1.4-3.8,2.2c-5.4,4.6-8.4,11.3-8.2,18.3c-0.8,0.2-1.5,0.4-2.3,0.4
				c-5.8,0.6-11.7-1.5-14.3-5.3c-2.2-3.1-2.1-7.3,0.3-12.1c0.8-1.7,1.6-4.2,0.3-6c-0.7-1-2-1.5-3.4-1.4
				c-5.9,0.6-21.6,14.7-28.3,29.6c-0.1,0.3-0.3,0.5-0.3,0.6c-2.2-1.6-6.2-10.7-6.8-13.6c-0.4-1.9-0.7-3.7-0.9-5.6
				c3.8-3.7,7.8-9.5,8.3-15.3c0.3-3.3-0.9-5.8-3.2-6.7c-2.9-1.1-5.9,0.7-7.6,4.5c-2,4.5-2.9,9.8-2.7,15.5c-2.8,2.6-7.1,4.7-11.4,5.8
				c3.3-6,5.7-12.5,6.3-17.4c0.8-6.4-0.5-11.1-3.7-14.1c-4-3.7-9.7-3.4-13.8-2c-4.7,1.7-8.7,5.1-11.1,9.5c-2.5,2.9-5.2,7.8-7.2,13.3
				l0,0c-4.6,8.4-20.5,31.6-38.5,53.3c-21.3,25.7-38,40.3-46.9,41.1c-1.9,0.2-3.4-0.4-4.4-1.7c-3.8-4.7-3.2-12.4-2-20
				c4.6-29.5,19.8-58.8,33.3-84.7l0.5-1c4.3-8.3,8.8-16.6,13.3-24.7c30.2-15.5,58.2-35.7,73.7-55.2c12-15.2,24.4-30.9,26.9-51.6
				c0.4-3.2,0.6-6.9-0.7-10.4c-1.8-5-4.9-6.4-7.3-6.7c-12.6-1.7-35.3,26.4-52.2,50.2l-0.2,0.3c-15.5,21.9-30.2,45.3-44,69.8
				c-28.2,14.3-58.1,24.2-80.7,25.1c-23.5,0.9-49.6-5.2-74.8-11.1C83.4,261,34,249.4,0.2,286.2c-0.9,1-0.9,2.6,0.2,3.5
				c1,0.9,2.6,0.9,3.5-0.2c31.8-34.7,77.7-23.9,126.2-12.4c25.5,6,51.9,12.3,76.1,11.3c21.4-0.9,49.3-9.7,76.3-22.6
				c-3.3,6.1-6.6,12.2-9.9,18.4l-0.5,1c-13.6,26.2-29.1,56-33.8,86.2c-0.9,5.9-2.6,16.8,3,23.9c1.9,2.4,4.5,3.6,7.7,3.6
				c0.4,0,0.7,0,1.1,0c20.8-1.8,63.4-57.6,81.7-84.8c-0.2,3.1,0,6,0.8,8.4c1.2,3.7,3.7,6.1,7.2,6.8c0.8,0.2,1.5,0.2,2.3,0.2
				c6.2,0,13-4.8,19.1-13.7c5.5-0.5,11.1-2.5,15.5-5.4c0.1,0.9,0.3,1.8,0.5,2.8c0,0.2,4.9,17,11.4,17.6c1.2,0.1,3.6-0.2,5.2-3.8
				c5.3-12,16.6-22.6,21.9-25.7c-3.7,7.8-1.8,13.2,0.4,16.4c3.7,5.3,11.3,8.3,19,7.4c0.8-0.1,1.6-0.2,2.4-0.4
				c1.9,7.6,7.4,13.5,15,15.8c2.2,0.7,4.5,1,6.8,1c6.9,0,14.3-2.8,21.1-8.2c4.9-3.9,9.1-8.7,13.1-13.3c2-2.3,4.1-4.7,6.2-6.9
				c17.2-17.9,41.7-29.3,68.9-32c38.1-3.8,75.7,9.3,110.9,23.1c7.2,2.8,14.1,6,20.9,9c26.7,12.1,52,23.6,83.2,8.8
				C784.9,321.7,785.4,320.2,784.8,318.9z M335,191.7l0.2-0.3c25.2-35.6,40.5-48.2,46.8-48.2c0.2,0,0.4,0,0.6,0
				c0.9,0.1,2.2,0.6,3.2,3.4c0.9,2.5,0.7,5.5,0.4,8.1c-2.4,19.3-13.8,33.8-25.9,49.1c-13.9,17.6-38.4,35.8-65.2,50.4
				C307.7,232.4,321,211.5,335,191.7z M340.9,324.7c-1-0.2-2.5-0.8-3.4-3.4c-1.5-4.6-0.1-12.4,2.3-19.3c1.2,5.1,4.9,9.2,11,12.5
				c1.3,0.7,2.8,1.2,4.4,1.4C350.2,322.3,345,325.5,340.9,324.7z M358.5,311.2c-2.1-0.1-4-0.5-5.3-1.2c-8.7-4.6-10.7-10.2-7.2-19.4
				c0.2-0.5,0.4-1,0.6-1.4c0,0,0,0,0-0.1c1.8-3.4,4.9-6.1,8.5-7.4c2.6-0.9,6.4-1.2,8.7,0.9c2.5,2.3,2.6,6.6,2.2,9.8
				C365.5,297.6,362.5,305,358.5,311.2z M383.5,291.3c0.4-0.8,0.8-1.4,1.1-1.6c0.1,0.3,0.1,0.8,0.1,1.4c-0.3,2.7-1.6,5.4-3.2,7.9
				C381.8,296.2,382.5,293.6,383.5,291.3z M448.4,305.5c0.5-0.4,1.2-1,1.9-1.2c0.1,0,0.3-0.1,0.4-0.1c0.2,0,0.4,0,0.4,0.1
				c0.2,0.2,0.2,1.1-0.4,2.5c-1.6,3.7-4.5,8-8.6,10.8C442.5,313,444.7,308.6,448.4,305.5z"/>
		</g>
		<g>
			<g>
				<path d="M170.3,352.1h-0.7l-0.2-0.1c-0.1-0.4-0.2-0.7-0.3-1.1c-0.1-0.3-0.3-0.6-0.5-0.8s-0.5-0.3-0.8-0.4
					c-0.3-0.1-0.8-0.1-1.5,0c-0.3,0.1-0.7,0.1-0.9,0.2c-0.3,0.1-0.6,0.1-1,0.2c-0.4,0.1-0.9,0.2-1.4,0.3s-1.3,0.3-2.1,0.5l-6.6,1.5
					c-0.9,0.2-1.6,0.4-2.2,0.5s-1.1,0.2-1.5,0.3s-0.8,0.2-1.1,0.2c-0.3,0.1-0.6,0.1-0.8,0.2c-1,0.2-1.9,0.3-2.9,0.3
					s-1.9-0.1-2.7-0.3c-0.8-0.2-1.6-0.6-2.2-1c-0.6-0.5-1.1-1.1-1.4-1.8c-0.1-0.2-0.2-0.4-0.2-0.6c-0.1-0.2-0.1-0.5-0.1-0.6v-0.3
					l0.8-0.2l0.2,0.1c0.1,0.3,0.1,0.6,0.2,0.8s0.2,0.5,0.3,0.7c0.2,0.2,0.5,0.5,0.8,0.7c0.8,0.5,2.2,0.6,4,0.3s4.4-0.8,7.6-1.6
					l7.3-1.7c0.8-0.2,1.5-0.4,2.1-0.5s1.1-0.2,1.5-0.4c0.4-0.1,0.7-0.2,1-0.3s0.6-0.2,0.8-0.3c0.6-0.2,1.1-0.4,1.3-0.6
					c0.2-0.2,0.4-0.5,0.5-0.7c0.1-0.3,0.2-0.5,0.1-0.9c0-0.3-0.1-0.7-0.2-1.1l0.1-0.2l0.6-0.3l0.1,0.1c0,0.2,0.1,0.4,0.2,0.8
					c0.1,0.4,0.2,0.8,0.3,1.2c0.1,0.4,0.2,0.8,0.3,1.2c0.1,0.4,0.2,0.7,0.2,0.8l0.2,0.7c0,0.2,0.1,0.4,0.2,0.8
					c0.1,0.4,0.2,0.8,0.3,1.2c0.1,0.4,0.2,0.8,0.3,1.2C170.2,351.6,170.3,351.8,170.3,352.1L170.3,352.1z"/>
			</g>
			<g>
				<path d="M178.8,377.8c0.7,1.8,1,3.5,0.9,5.1s-0.5,3.1-1.2,4.5s-1.7,2.5-2.9,3.6c-1.2,1-2.6,1.8-4.1,2.4
					c-1.5,0.6-3.1,0.9-4.7,0.9s-3.1-0.2-4.6-0.8c-1.4-0.5-2.8-1.4-4-2.6c-1.2-1.2-2.2-2.7-2.9-4.6c-0.7-1.8-1-3.5-0.9-5.1
					s0.5-3.1,1.2-4.4c0.7-1.3,1.6-2.5,2.8-3.5c1.2-1,2.6-1.8,4.1-2.4c1.6-0.6,3.2-1,4.9-1c1.6,0,3.1,0.2,4.6,0.8
					c1.4,0.6,2.7,1.4,3.9,2.6C177.2,374.6,178.1,376.1,178.8,377.8z M157.4,386c0.5,1.4,1.2,2.5,2.2,3.4c0.9,0.9,2,1.5,3.1,1.9
					c1.2,0.4,2.4,0.6,3.8,0.5c1.3-0.1,2.7-0.4,4-0.9c1.4-0.5,2.6-1.2,3.6-2.1c1-0.9,1.8-1.8,2.4-2.9c0.6-1.1,0.9-2.3,1-3.5
					c0.1-1.3-0.1-2.6-0.7-4c-0.5-1.3-1.2-2.4-2.1-3.3c-0.9-0.9-1.9-1.5-3-1.8c-1.1-0.4-2.4-0.5-3.7-0.4c-1.3,0.1-2.7,0.4-4.1,0.9
					c-1.5,0.6-2.8,1.3-3.9,2.2s-1.9,1.8-2.4,2.9c-0.6,1.1-0.9,2.2-0.9,3.4C156.8,383.5,157,384.7,157.4,386z"/>
			</g>
			<g>
				<path d="M194.2,410.9l-0.6,0.2l-0.2-0.1c-0.2-0.3-0.4-0.7-0.6-1s-0.4-0.5-0.7-0.6c-0.2-0.1-0.5-0.1-0.8-0.2
					c-0.3,0-0.8,0.1-1.4,0.4c-0.3,0.1-0.6,0.3-0.9,0.4c-0.3,0.1-0.6,0.3-0.9,0.5s-0.8,0.4-1.3,0.7s-1.1,0.6-1.9,1l-5.9,3.3
					c-0.8,0.4-1.4,0.8-1.9,1c-0.5,0.3-0.9,0.5-1.2,0.7s-0.6,0.3-0.8,0.5c-0.2,0.1-0.5,0.3-0.7,0.4c-0.6,0.4-0.9,0.7-1.1,1
					s-0.3,0.5-0.3,0.8s0,0.6,0.1,0.9c0.1,0.3,0.3,0.7,0.5,1l-0.1,0.2l-0.5,0.4h-0.1c-0.1-0.2-0.2-0.4-0.4-0.7
					c-0.2-0.3-0.4-0.7-0.6-1.1c-0.2-0.4-0.4-0.7-0.6-1.1c-0.2-0.3-0.3-0.6-0.4-0.7l-0.3-0.6c-0.1-0.2-0.2-0.4-0.4-0.7
					c-0.2-0.3-0.4-0.7-0.6-1.1c-0.2-0.4-0.4-0.7-0.6-1.1c-0.2-0.3-0.3-0.6-0.4-0.7v-0.1l0.6-0.2l0.2,0.1c0.2,0.3,0.4,0.7,0.6,0.9
					c0.2,0.3,0.4,0.5,0.7,0.6c0.2,0.1,0.5,0.1,0.9,0.2c0.3,0,0.8-0.1,1.4-0.4c0.1-0.1,0.3-0.2,0.5-0.3s0.5-0.2,0.8-0.4
					s0.7-0.4,1.1-0.6c0.4-0.2,1-0.5,1.6-0.9l6.5-3.6c0.7-0.4,1.4-0.8,1.9-1c0.5-0.3,0.9-0.5,1.3-0.7s0.7-0.4,0.9-0.5
					s0.5-0.3,0.7-0.5c0.5-0.4,0.9-0.7,1.1-1s0.3-0.6,0.3-0.8c0-0.3,0-0.6-0.1-0.9c-0.1-0.3-0.3-0.6-0.5-1v-0.2l0.5-0.4h0.1
					c0.1,0.2,0.2,0.4,0.4,0.7c0.2,0.3,0.4,0.7,0.6,1.1c0.2,0.4,0.4,0.7,0.6,1.1c0.2,0.3,0.3,0.6,0.4,0.7l0.3,0.6
					c0.1,0.1,0.2,0.4,0.4,0.7c0.2,0.3,0.4,0.7,0.6,1.1c0.2,0.4,0.4,0.7,0.6,1.1C193.9,410.4,194.1,410.6,194.2,410.9L194.2,410.9z"
					/>
			</g>
			<g>
				<path d="M216.6,443.4l-0.6,0.3l-0.2-0.1c-0.2-0.3-0.5-0.6-0.7-0.9c-0.2-0.3-0.5-0.4-0.7-0.5c-0.3-0.1-0.5-0.1-0.8,0
					c-0.3,0-0.8,0.2-1.3,0.6c-0.3,0.2-0.6,0.4-0.8,0.5c-0.2,0.2-0.5,0.4-0.8,0.6c-0.3,0.2-0.7,0.5-1.2,0.8s-1,0.8-1.7,1.3l-5.2,3.9
					c-1.1,0.8-2,1.5-2.7,2s-1.3,1-1.8,1.4s-0.9,0.7-1.3,1.1c-0.4,0.3-0.8,0.7-1.2,1.1l-0.3-0.2l-1.4-1.8l0.1-0.6l7.8-22.2
					c-0.2,0.1-0.4,0.3-0.6,0.4c-0.2,0.1-0.4,0.3-0.7,0.5c-0.3,0.2-0.6,0.5-1,0.7c-0.4,0.3-0.8,0.6-1.4,1l-5.4,4.1
					c-0.2,0.2-0.5,0.4-0.9,0.7s-0.8,0.6-1.2,0.9c-0.4,0.3-0.8,0.6-1.2,0.9c-0.4,0.3-0.7,0.5-0.9,0.7c-0.5,0.4-0.8,0.8-0.9,1.1
					s-0.2,0.6-0.2,0.9c0,0.2,0.1,0.5,0.2,0.8c0.2,0.3,0.4,0.6,0.7,1v0.2l-0.5,0.5h-0.1c-0.1-0.1-0.3-0.3-0.5-0.6s-0.4-0.6-0.7-0.9
					c-0.2-0.3-0.5-0.6-0.7-0.9c-0.2-0.3-0.4-0.5-0.5-0.6l-0.4-0.6c-0.1-0.1-0.3-0.4-0.5-0.7s-0.5-0.6-0.7-1c-0.2-0.3-0.5-0.7-0.7-1
					s-0.4-0.5-0.5-0.7V438l0.6-0.3l0.2,0.1c0.3,0.4,0.5,0.6,0.7,0.9c0.2,0.2,0.5,0.4,0.7,0.5s0.5,0.1,0.8,0.1s0.8-0.2,1.4-0.6
					c0.2-0.1,0.3-0.2,0.5-0.3s0.4-0.3,0.7-0.5c0.3-0.2,0.6-0.5,1-0.8s0.9-0.7,1.5-1.1l6-4.5c0.7-0.5,1.3-0.9,1.7-1.3
					c0.5-0.4,0.9-0.7,1.2-0.9c0.3-0.3,0.6-0.5,0.8-0.7c0.2-0.2,0.5-0.4,0.7-0.6c0.4-0.3,0.7-0.7,0.8-1c0.2-0.4,0.3-0.7,0.3-0.9
					c0-0.3-0.1-0.6-0.2-0.8c-0.2-0.3-0.4-0.6-0.6-0.9v-0.2l0.5-0.5h0.2c0.1,0.1,0.2,0.3,0.4,0.6c0.2,0.3,0.4,0.6,0.6,0.8
					c0.2,0.3,0.4,0.6,0.6,0.8c0.2,0.3,0.3,0.5,0.4,0.6l0.8,1c0.1,0.2,0.3,0.4,0.5,0.7s0.4,0.5,0.6,0.6v0.2c-0.2,0.3-0.5,0.7-0.8,1.3
					s-0.6,1.3-0.9,2.1s-0.7,1.6-1,2.5c-0.4,0.9-0.7,1.8-1.1,2.7c-1.3,3.3-2.2,6-2.9,8.3c-0.7,2.2-1.1,3.7-1.3,4.3
					c0.1-0.1,0.3-0.2,0.4-0.3s0.3-0.2,0.4-0.3c0.2-0.1,0.4-0.3,0.6-0.4c0.2-0.2,0.5-0.4,0.9-0.7l6-4.5c0.7-0.5,1.3-0.9,1.7-1.3
					c0.5-0.4,0.9-0.7,1.2-0.9c0.3-0.3,0.6-0.5,0.8-0.7c0.2-0.2,0.5-0.4,0.7-0.6c0.5-0.4,0.8-0.8,0.9-1.1s0.2-0.6,0.2-0.8
					c0-0.3-0.1-0.6-0.3-0.9c-0.2-0.3-0.4-0.6-0.6-0.9v-0.2l0.5-0.5h0.2c0.1,0.1,0.2,0.3,0.4,0.6c0.2,0.3,0.4,0.5,0.5,0.8
					c0.2,0.3,0.4,0.5,0.5,0.8c0.2,0.3,0.3,0.5,0.4,0.6l1,1.4c0.1,0.1,0.2,0.3,0.4,0.6c0.2,0.3,0.4,0.5,0.6,0.8s0.4,0.5,0.7,0.7
					c0.2,0.2,0.4,0.4,0.5,0.5L216.6,443.4z"/>
			</g>
			<g>
				<path d="M260.9,484l-0.5,0.5h-0.2c-0.3-0.2-0.6-0.5-0.9-0.6c-0.3-0.2-0.6-0.3-0.9-0.3s-0.5,0.1-0.8,0.2
					c-0.3,0.1-0.7,0.4-1.1,0.9c-0.2,0.2-0.4,0.4-0.6,0.7c-0.2,0.2-0.4,0.5-0.7,0.8c-0.3,0.3-0.6,0.7-0.9,1.2c-0.4,0.5-0.8,1-1.3,1.7
					l-4.3,5.5c-0.7,0.9-1.6,1.7-2.5,2.3s-1.9,1-3,1.1c-1.1,0.2-2.2,0.1-3.3-0.3c-1.1-0.3-2.3-1-3.5-1.9c-1.3-1.1-2.4-2.1-3-3.2
					c-0.7-1.1-1-2.1-1.1-3.2c-0.1-1.1,0-2.1,0.4-3.1s0.9-2,1.7-2.9l4.3-5.5c0.5-0.7,1-1.2,1.3-1.7c0.4-0.5,0.7-0.9,0.9-1.2
					c0.3-0.3,0.5-0.6,0.6-0.8c0.2-0.2,0.3-0.5,0.5-0.7c0.4-0.6,0.6-1,0.6-1.3s0-0.6,0-0.9c-0.1-0.3-0.2-0.5-0.5-0.8
					c-0.2-0.2-0.5-0.5-0.8-0.7l-0.1-0.2l0.3-0.6h0.1c0.1,0.1,0.4,0.3,0.7,0.5c0.3,0.2,0.6,0.5,1,0.7c0.3,0.3,0.6,0.5,1,0.7
					c0.3,0.2,0.5,0.4,0.7,0.5l0.5,0.4c0.1,0.1,0.4,0.3,0.7,0.5c0.3,0.2,0.6,0.5,1,0.7c0.3,0.3,0.6,0.5,1,0.7
					c0.3,0.2,0.5,0.4,0.7,0.5v0.1l-0.5,0.5h-0.2c-0.3-0.2-0.6-0.5-0.9-0.6c-0.3-0.2-0.6-0.3-0.9-0.3s-0.5,0.1-0.8,0.2
					c-0.3,0.1-0.7,0.4-1.1,0.9c-0.2,0.3-0.4,0.5-0.6,0.7s-0.4,0.5-0.7,0.8c-0.3,0.3-0.6,0.7-0.9,1.1c-0.3,0.4-0.8,1-1.3,1.7
					l-3.7,4.8c-1.6,2.1-2.3,3.9-2.1,5.6c0.2,1.6,1.2,3.1,2.8,4.4c1.7,1.3,3.3,1.9,5,1.7s3.3-1.3,4.9-3.4l3.7-4.8
					c0.5-0.7,1-1.3,1.3-1.7s0.6-0.8,0.9-1.1s0.4-0.6,0.6-0.8s0.4-0.5,0.5-0.8c0.4-0.6,0.6-1,0.6-1.3s0-0.6,0-0.9
					c0-0.3-0.2-0.5-0.5-0.8c-0.3-0.2-0.5-0.5-0.8-0.7l-0.1-0.2l0.3-0.6l0.1-0.1c0.1,0.1,0.3,0.3,0.6,0.5c0.2,0.2,0.5,0.5,0.8,0.7
					c0.3,0.2,0.6,0.5,0.9,0.7s0.5,0.4,0.6,0.5l0.6,0.5c0.1,0.1,0.3,0.3,0.6,0.5c0.3,0.2,0.6,0.5,0.9,0.7s0.6,0.5,0.9,0.7
					C260.5,483.6,260.7,483.8,260.9,484L260.9,484z"/>
			</g>
			<g>
				<path d="M273.4,498.2c-0.3,0.6-0.5,1.2-0.5,1.7s0.1,1,0.4,1.6c0.3,0.5,0.7,1.1,1.2,1.7c0.5,0.6,1.2,1.3,1.9,2.1
					c0.6,0.7,1.3,1.4,1.9,2.2s1,1.5,1.4,2.4c0.3,0.8,0.5,1.7,0.4,2.6c0,0.9-0.3,1.9-0.9,2.9c-0.6,1.1-1.3,1.9-2.2,2.4
					c-0.9,0.5-1.8,0.8-2.7,0.9c-1,0.1-2,0-3-0.4c-1-0.3-2.1-0.8-3.1-1.3c-1.3-0.7-2.4-1.6-3.4-2.5c-0.9-0.9-1.7-1.8-2.3-2.8l0.1-0.5
					l2.5-3.1l0.8,0.4l0.1,0.3c-0.6,1.4-0.6,2.6,0,3.7c0.6,1.1,1.7,2.2,3.3,3.1c1.7,0.9,3.1,1.3,4.4,1s2.2-1,2.9-2.3
					c0.4-0.7,0.6-1.5,0.6-2.1c0-0.7-0.2-1.3-0.5-2c-0.3-0.6-0.8-1.3-1.3-1.9c-0.5-0.6-1.1-1.2-1.6-1.8c-0.7-0.8-1.3-1.5-1.9-2.3
					c-0.5-0.7-1-1.5-1.3-2.2c-0.3-0.8-0.4-1.5-0.4-2.3s0.3-1.6,0.8-2.5c0.6-1,1.2-1.8,2-2.2c0.7-0.5,1.5-0.8,2.4-0.9
					c0.9-0.1,1.8,0,2.7,0.3c0.9,0.3,1.9,0.7,2.8,1.2c1.2,0.6,2.2,1.4,3.1,2.2s1.6,1.5,2.1,2.2l-0.1,0.4l-2,2.6l-0.9-0.5l-0.1-0.3
					c0.3-0.6,0.3-1.1,0.2-1.6c-0.1-0.5-0.4-1-0.7-1.4c-0.3-0.4-0.7-0.8-1.2-1.2c-0.5-0.3-0.9-0.6-1.3-0.8c-1.4-0.8-2.6-1.1-3.8-0.9
					C275,496.4,274.1,497.1,273.4,498.2z"/>
			</g>
			<g>
				<path d="M327.7,541c-0.2,0-0.4-0.1-0.8-0.2c-0.4-0.1-0.7-0.2-1.1-0.3c-0.4-0.1-0.8-0.2-1.1-0.3c-0.4-0.1-0.6-0.2-0.8-0.2l-2-0.6
					c-0.2,0-0.4-0.1-0.8-0.2c-0.4-0.1-0.7-0.2-1.1-0.3c-0.4-0.1-0.8-0.2-1.1-0.3c-0.4-0.1-0.6-0.2-0.8-0.2l-0.1-0.1l0.3-0.6l0.2-0.1
					c0.4,0.1,0.8,0.2,1.3,0.3s0.8,0.1,1.1,0c0.2-0.1,0.5-0.3,0.8-0.5s0.5-0.6,0.8-1.3c0.1-0.2,0.1-0.3,0.2-0.6
					c0.1-0.2,0.2-0.5,0.3-0.8s0.2-0.7,0.4-1.2c0.1-0.5,0.3-1.1,0.5-1.8l2-7.2c0.4-1.5,0.8-2.9,1.1-4.1c0.3-1.2,0.5-2.1,0.7-2.7
					l-0.4-0.1c-1.2-0.3-2.1-0.6-2.9-0.8c-0.8-0.2-1.4-0.4-1.8-0.5c-0.5-0.1-0.8-0.2-1.1-0.2c-0.2,0-0.4,0-0.5,0
					c-0.6,0.1-1.1,0.7-1.5,1.6l-0.2,0.1l-0.8-0.2l1.4-4l0.2-0.3h0.2c0.2,0.1,0.6,0.3,1.2,0.6c0.6,0.3,1.3,0.5,2.1,0.7
					s1.5,0.4,2.2,0.6c0.7,0.2,1.2,0.3,1.5,0.4l4.4,1.3c0.3,0.1,0.8,0.2,1.5,0.4s1.4,0.4,2.2,0.6c0.8,0.2,1.5,0.4,2.1,0.5
					c0.7,0.1,1.1,0.2,1.3,0.1l0.2,0.2l0.1,0.4l-0.9,4.1l-0.8-0.2l-0.1-0.2c0.2-1,0-1.7-0.4-2.1c-0.1-0.1-0.2-0.2-0.4-0.3
					s-0.5-0.2-1-0.4c-0.4-0.2-1-0.4-1.8-0.6c-0.8-0.2-1.7-0.5-2.9-0.8l-0.4-0.1c-0.2,0.7-0.5,1.6-0.8,2.7c-0.3,1.1-0.7,2.5-1.2,4.1
					l-1.9,6.5c-0.2,0.8-0.4,1.5-0.6,2.1c-0.2,0.5-0.3,1-0.4,1.3c-0.1,0.4-0.2,0.7-0.2,0.9c-0.1,0.2-0.1,0.5-0.2,0.8
					c-0.1,0.7-0.1,1.2,0,1.5s0.3,0.6,0.4,0.8c0.1,0.2,0.4,0.4,0.9,0.6c0.5,0.2,0.9,0.3,1.3,0.4l0.1,0.2L327.7,541L327.7,541z"/>
			</g>
			<g>
				<path d="M365.2,523.2c1.9,0.2,3.5,0.8,4.9,1.6s2.5,1.9,3.4,3.1c0.9,1.2,1.5,2.6,1.9,4.2c0.4,1.5,0.4,3.1,0.2,4.8
					c-0.2,1.6-0.6,3.1-1.3,4.6c-0.7,1.4-1.6,2.7-2.8,3.7s-2.5,1.8-4.1,2.3s-3.4,0.6-5.4,0.4c-1.9-0.2-3.6-0.8-5-1.6
					s-2.5-1.9-3.3-3.1c-0.9-1.2-1.4-2.6-1.7-4.1s-0.4-3.1-0.2-4.7c0.2-1.7,0.7-3.3,1.4-4.8s1.6-2.7,2.8-3.7s2.5-1.8,4.1-2.2
					C361.7,523.1,363.4,523,365.2,523.2z M362.5,545.9c1.5,0.2,2.8,0.1,4-0.4c1.2-0.4,2.2-1,3.1-1.9c0.9-0.9,1.6-1.9,2.2-3.1
					c0.6-1.2,0.9-2.5,1.1-4c0.2-1.5,0.1-2.8-0.2-4.2c-0.3-1.3-0.8-2.5-1.4-3.5c-0.7-1-1.6-1.9-2.7-2.5c-1.1-0.7-2.4-1.1-3.8-1.2
					c-1.4-0.2-2.7-0.1-3.9,0.3c-1.2,0.4-2.2,1-3,1.8c-0.9,0.8-1.6,1.9-2.1,3.1c-0.5,1.2-0.9,2.5-1,4c-0.2,1.6-0.1,3.1,0.1,4.4
					c0.3,1.3,0.8,2.5,1.5,3.5s1.6,1.8,2.6,2.4C360,545.3,361.2,545.7,362.5,545.9z"/>
			</g>
			<g>
				<path d="M432.8,526.2c-0.1-0.5-0.4-0.9-0.9-1.2c-0.4-0.3-1-0.5-1.6-0.7c-0.6-0.1-1.3-0.2-2-0.2s-1.4,0.1-2.1,0.2
					c-2.4,0.3-4.2,1.1-5.4,2.4c-1,1.1-1.7,2.4-2.1,4c-0.4,1.6-0.4,3.3-0.2,5.1c0.2,1.7,0.7,3.2,1.4,4.4s1.5,2.2,2.5,3
					s2.1,1.3,3.4,1.6c1.3,0.3,2.6,0.3,4,0.1c1-0.1,2.1-0.4,3.4-0.9c1.3-0.5,2.4-1.2,3.5-2.1l0.4,0.3l-0.6,1.7
					c-1.1,0.8-2.3,1.5-3.4,1.9c-1.2,0.5-2.4,0.8-3.7,1c-1.8,0.3-3.5,0.2-5.1-0.2s-2.9-1-4.1-2c-1.2-0.9-2.2-2.1-3-3.5
					s-1.3-3-1.6-4.8c-0.2-1.7-0.2-3.3,0.1-4.9c0.3-1.6,0.9-3,1.8-4.3c0.9-1.3,2-2.3,3.5-3.2c1.4-0.9,3.1-1.4,5.2-1.7
					c0.4-0.1,1-0.1,1.5-0.2c0.6-0.1,1.2-0.1,1.9-0.1s1.4,0.1,2.1,0.1c0.7,0.1,1.4,0.2,2.1,0.4l0.2,0.3v3.4l-1.1,0.1L432.8,526.2z"/>
			</g>
			<g>
				<path d="M459.2,515.2c0.3-0.1,0.8-0.2,1.4-0.4c0.6-0.2,1.2-0.4,1.9-0.6c0.6-0.2,1.2-0.4,1.7-0.5c0.5-0.2,0.8-0.2,0.9-0.3
					l0.3,0.3l1,3.9l-0.9,0.3l-0.2-0.1c-0.2-0.5-0.4-0.9-0.6-1.2c-0.2-0.3-0.5-0.4-0.9-0.5c-0.4,0-1,0.1-1.8,0.3s-1.9,0.6-3.3,1
					l-3.4,1l0.3,1.4c0.1,0.4,0.2,0.7,0.2,1c0.1,0.3,0.1,0.6,0.2,0.9c0.1,0.4,0.2,0.8,0.4,1.3s0.5,1.8,1.1,3.8
					c0.7-0.2,1.4-0.4,2.1-0.6c0.7-0.2,1.3-0.4,1.9-0.6c0.6-0.2,1-0.4,1.4-0.6c0.4-0.2,0.6-0.4,0.7-0.6c0.1-0.2,0.2-0.5,0.3-0.7
					s0.1-0.5,0-0.9l0.1-0.2l0.6-0.2h0.2c0.1,0.6,0.2,1,0.3,1.4s0.2,0.9,0.4,1.4c0.2,0.6,0.3,1.1,0.5,1.5c0.2,0.5,0.4,1,0.6,1.5
					l-0.1,0.1l-0.7,0.1l-0.2-0.1c-0.1-0.4-0.3-0.7-0.5-1s-0.5-0.5-0.7-0.7c-0.2-0.1-0.5-0.1-0.9-0.1s-0.9,0.2-1.5,0.3
					c-0.6,0.2-1.2,0.4-1.9,0.6c-0.7,0.2-1.4,0.4-2.1,0.6l1,3.4c0.3,0.8,0.5,1.5,0.6,2c0.2,0.5,0.3,1,0.4,1.4
					c0.1,0.4,0.3,0.8,0.4,1.1c0.1,0.3,0.3,0.7,0.5,1.1c0.1,0.4,0.4,0.6,0.9,0.5l3-0.9c1.4-0.4,2.5-0.8,3.3-1.1s1.4-0.6,1.7-0.9
					c0.4-0.3,0.6-0.7,0.6-1.1c0.1-0.4,0.1-1,0.1-1.7l0.1-0.2l0.9-0.3l0.7,4.6l-0.2,0.4c-0.1,0-0.4,0.1-0.8,0.2
					c-0.4,0.1-0.9,0.3-1.4,0.4c-0.5,0.2-1.1,0.3-1.6,0.5s-0.9,0.3-1.2,0.4l-7.1,2.1c-0.2,0-0.4,0.1-0.8,0.2
					c-0.4,0.1-0.8,0.2-1.2,0.3s-0.8,0.2-1.2,0.3s-0.6,0.2-0.8,0.2h-0.1l-0.1-0.7l0.1-0.2c0.4-0.1,0.7-0.2,1-0.4
					c0.3-0.1,0.6-0.3,0.7-0.5c0.1-0.2,0.3-0.5,0.4-0.8c0.1-0.3,0.1-0.8-0.1-1.5c0-0.2-0.1-0.4-0.2-0.6c-0.1-0.2-0.1-0.5-0.2-0.8
					c-0.1-0.3-0.2-0.7-0.3-1.2s-0.3-1.1-0.5-1.8l-2.1-7.1c-0.2-0.8-0.4-1.5-0.6-2.1c-0.2-0.6-0.3-1-0.4-1.4c-0.1-0.4-0.2-0.7-0.3-1
					s-0.2-0.6-0.3-0.8c-0.2-0.6-0.5-1-0.7-1.3c-0.3-0.2-0.5-0.4-0.7-0.5c-0.3-0.1-0.6-0.1-0.9-0.1c-0.3,0.1-0.7,0.1-1.1,0.3
					l-0.2-0.1l-0.3-0.6l0.1-0.1c0.2,0,0.4-0.1,0.8-0.2c0.4-0.1,0.8-0.2,1.2-0.4c0.4-0.1,0.9-0.3,1.3-0.4c0.4-0.1,0.7-0.2,1-0.3
					L459.2,515.2z"/>
			</g>
			<g>
				<path d="M484.5,509.4c-0.3-0.6-0.6-1-0.9-1.2c-0.3-0.2-0.5-0.3-0.8-0.4c-0.3-0.1-0.6,0-0.9,0.1c-0.3,0.1-0.7,0.2-1,0.4l-0.2-0.1
					l-0.4-0.6l0.1-0.1c0.2-0.1,0.4-0.2,0.8-0.4c0.4-0.2,0.7-0.3,1.1-0.5c0.4-0.2,0.7-0.3,1.1-0.5c0.4-0.2,0.6-0.3,0.8-0.4l0.6-0.3
					c0.2-0.1,0.4-0.2,0.8-0.3c0.4-0.2,0.7-0.3,1.1-0.5c0.4-0.2,0.7-0.3,1.1-0.5c0.4-0.2,0.6-0.3,0.8-0.4h0.1l0.2,0.6l-0.1,0.2
					c-0.4,0.2-0.7,0.3-1,0.5s-0.5,0.4-0.7,0.6c-0.1,0.2-0.2,0.5-0.2,0.9c-0.1,0.3,0,0.8,0.3,1.4c0.1,0.3,0.2,0.6,0.3,0.9
					c0.1,0.3,0.2,0.6,0.4,0.9c0.2,0.4,0.4,0.8,0.6,1.3c0.2,0.5,0.5,1.2,0.9,2l2.8,6.1c0.4,0.8,0.6,1.4,0.9,1.9
					c0.2,0.5,0.4,1,0.6,1.3c0.2,0.4,0.4,0.7,0.5,1c0.2,0.3,0.4,0.7,0.6,1.1c0.2,0.4,0.5,0.5,1,0.3l2.8-1.3c1.3-0.6,2.3-1.1,3-1.5
					s1.1-0.7,1.3-1s0.3-0.7,0.2-1.1c-0.1-0.4-0.2-0.9-0.3-1.6V518l0.9-0.4l1.3,4.5l-0.1,0.5c-0.1,0.1-0.3,0.1-0.6,0.3
					c-0.3,0.1-0.6,0.3-1,0.5s-0.8,0.4-1.2,0.5c-0.4,0.2-0.8,0.3-1.1,0.5l-6.7,3.1c-0.2,0.1-0.4,0.2-0.8,0.4
					c-0.4,0.2-0.7,0.3-1.1,0.5c-0.4,0.2-0.7,0.3-1.1,0.5c-0.4,0.2-0.6,0.3-0.8,0.4h-0.1l-0.2-0.6l0.1-0.2c0.4-0.2,0.7-0.3,1-0.5
					s0.5-0.4,0.6-0.6c0.1-0.2,0.2-0.5,0.2-0.9s-0.1-0.8-0.2-1.4c-0.1-0.2-0.1-0.4-0.2-0.6c-0.1-0.2-0.2-0.5-0.3-0.8
					s-0.3-0.7-0.5-1.1c-0.2-0.4-0.5-1-0.8-1.7l-3.1-6.8c-0.4-0.8-0.7-1.4-0.9-2c-0.2-0.5-0.5-1-0.6-1.4c-0.2-0.4-0.3-0.7-0.5-1
					C484.8,510,484.7,509.7,484.5,509.4z"/>
			</g>
			<g>
				<path d="M517,488.2c0.3-0.2,0.7-0.4,1.2-0.8c0.5-0.4,1.1-0.7,1.7-1.1c0.6-0.4,1.1-0.7,1.5-1s0.7-0.5,0.8-0.5l0.3,0.2l2,3.4
					l-0.8,0.5h-0.2c-0.3-0.5-0.6-0.8-0.9-1c-0.2-0.2-0.6-0.3-1-0.2s-1,0.4-1.6,0.8c-0.7,0.4-1.6,1-2.9,1.8l-3,1.9l0.7,1.2
					c0.2,0.3,0.3,0.6,0.5,0.9c0.1,0.2,0.3,0.5,0.5,0.8s0.4,0.7,0.7,1.2s1,1.6,2.1,3.3c0.6-0.4,1.2-0.8,1.9-1.2
					c0.6-0.4,1.2-0.8,1.7-1.1s0.9-0.6,1.2-0.9c0.3-0.3,0.5-0.6,0.5-0.8c0.1-0.3,0.1-0.5,0.1-0.8c0-0.2-0.1-0.5-0.3-0.8l0.1-0.3
					l0.5-0.4h0.2c0.3,0.5,0.5,0.9,0.7,1.3c0.2,0.4,0.4,0.8,0.7,1.2c0.3,0.5,0.6,0.9,0.9,1.3c0.3,0.4,0.6,0.8,1,1.3l-0.1,0.1
					l-0.6,0.3h-0.2c-0.2-0.3-0.5-0.6-0.8-0.8s-0.6-0.3-0.9-0.4c-0.2,0-0.5,0-0.9,0.2s-0.8,0.4-1.3,0.7s-1,0.7-1.7,1.1
					c-0.6,0.4-1.2,0.8-1.9,1.2l1.9,3c0.5,0.7,0.9,1.3,1.2,1.8s0.6,0.9,0.8,1.2c0.2,0.4,0.5,0.7,0.7,1s0.5,0.6,0.8,1s0.6,0.5,1,0.2
					l2.6-1.7c1.2-0.8,2.2-1.4,2.9-1.9s1.1-1,1.4-1.4c0.3-0.4,0.4-0.8,0.3-1.3c-0.1-0.4-0.2-1-0.4-1.6v-0.2l0.8-0.5l1.9,4.3l0.1,0.5
					c-0.1,0.1-0.3,0.2-0.7,0.5c-0.4,0.2-0.8,0.5-1.3,0.8s-0.9,0.6-1.4,0.9c-0.5,0.3-0.8,0.5-1.1,0.7l-6.2,4
					c-0.1,0.1-0.4,0.2-0.7,0.5c-0.3,0.2-0.7,0.4-1,0.7c-0.3,0.2-0.7,0.4-1,0.7c-0.3,0.2-0.6,0.4-0.7,0.5h-0.1l-0.3-0.6l0.1-0.2
					c0.3-0.2,0.6-0.4,0.9-0.6c0.3-0.2,0.4-0.5,0.5-0.7c0.1-0.3,0.1-0.5,0.1-0.9c0-0.3-0.2-0.8-0.5-1.4c-0.1-0.1-0.2-0.3-0.3-0.5
					s-0.3-0.5-0.4-0.7c-0.2-0.3-0.4-0.6-0.7-1.1c-0.3-0.4-0.6-0.9-1-1.5l-4-6.3c-0.5-0.7-0.9-1.3-1.2-1.8s-0.6-0.9-0.8-1.3
					c-0.2-0.4-0.4-0.6-0.6-0.9c-0.2-0.2-0.3-0.5-0.5-0.7c-0.4-0.5-0.7-0.9-1.1-1c-0.3-0.1-0.6-0.2-0.8-0.3c-0.3,0-0.6,0-0.9,0.2
					c-0.3,0.2-0.6,0.3-1,0.5h-0.2l-0.4-0.5v-0.1c0.1-0.1,0.4-0.2,0.7-0.5c0.3-0.2,0.7-0.4,1.1-0.7c0.4-0.2,0.8-0.5,1.1-0.7
					c0.4-0.2,0.7-0.4,0.9-0.6L517,488.2z"/>
			</g>
			<g>
				<path d="M554.2,490.9c-0.1,0.1-0.3,0.3-0.6,0.6s-0.6,0.5-0.9,0.8c-0.3,0.3-0.6,0.5-0.9,0.8c-0.3,0.3-0.5,0.4-0.6,0.6h-0.1
					l-0.3-0.6v-0.2c0.2-0.2,0.5-0.4,0.7-0.7c0.3-0.3,0.4-0.6,0.5-0.8s0-0.5,0-0.9c-0.1-0.4-0.3-0.8-0.7-1.3c-0.2-0.3-0.6-0.7-1-1.3
					c-0.5-0.6-1.2-1.4-2.1-2.5l-6-6.9c-0.3-0.4-0.7-0.8-1.1-1.3c-0.4-0.5-0.8-0.9-1.3-1.4s-0.9-0.8-1.2-0.9
					c-0.3-0.1-0.6-0.1-0.9-0.1c-0.2,0.1-0.5,0.1-0.7,0.2c-0.2,0.1-0.6,0.4-1,0.8h-0.2l-0.5-0.4v-0.1c0.1-0.1,0.3-0.3,0.5-0.4
					c0.2-0.2,0.5-0.3,0.7-0.5s0.5-0.4,0.7-0.6c0.3-0.2,0.5-0.4,0.7-0.6l1-0.9c0.2-0.2,0.4-0.4,0.7-0.6c0.3-0.2,0.5-0.5,0.8-0.7
					s0.5-0.4,0.7-0.6c0.2-0.2,0.4-0.3,0.5-0.5c2-1.7,3.8-2.6,5.3-2.6s2.8,0.6,3.9,1.9c0.5,0.6,0.8,1.1,1.1,1.6
					c0.2,0.5,0.4,1.1,0.4,1.6s0,1-0.1,1.5s-0.2,1-0.4,1.4c1.6-0.9,3-1.3,4.5-1.2c1.4,0.2,2.7,0.9,3.9,2.3c0.8,0.9,1.3,1.9,1.6,2.8
					c0.2,1,0.2,1.9,0,2.8c-0.2,0.9-0.7,1.9-1.3,2.8c-0.7,0.9-1.5,1.8-2.5,2.7L554.2,490.9z M547.9,478.3c0.6-0.5,1.1-1,1.6-1.6
					c0.5-0.5,0.8-1.1,0.9-1.8c0.2-0.6,0.2-1.3,0-2s-0.5-1.4-1.1-2.1c-0.8-1-1.8-1.5-2.8-1.5s-2,0.4-3,1.3l-2.5,2.2
					c0.4,0.6,0.8,1,1.1,1.4s0.6,0.7,0.8,1s0.4,0.6,0.6,0.8c0.2,0.2,0.4,0.4,0.6,0.6l1.5,1.7c0.4,0.4,0.6,0.7,0.8,0.8
					s0.4,0.1,0.6-0.1L547.9,478.3z M547.4,480.5c0.4,0.5,1,1.1,1.6,1.8s1.2,1.4,1.8,2.1c0.6,0.7,1.1,1.3,1.6,1.8s0.8,0.9,1,1
					c0.5,0.5,0.8,0.7,1.1,0.7s0.5-0.2,0.8-0.4l1.7-1.5c0.4-0.4,0.9-0.9,1.3-1.4c0.4-0.6,0.8-1.2,1-1.9s0.3-1.4,0.2-2.2
					s-0.5-1.5-1.2-2.3c-0.6-0.7-1.2-1.1-1.9-1.4c-0.7-0.3-1.4-0.4-2.1-0.4c-0.7,0-1.4,0.2-2.1,0.5c-0.7,0.3-1.4,0.8-2.1,1.3
					L547.4,480.5z"/>
			</g>
			<g>
				<path d="M584,461.6c-0.1,0.1-0.3,0.3-0.5,0.6c-0.3,0.3-0.5,0.6-0.8,0.9c-0.3,0.3-0.5,0.6-0.8,0.9c-0.3,0.3-0.4,0.5-0.5,0.6
					l-0.5,0.5c-0.1,0.1-0.3,0.3-0.5,0.6c-0.3,0.3-0.5,0.6-0.8,0.9s-0.5,0.6-0.8,0.9c-0.3,0.3-0.4,0.5-0.5,0.6h-0.1l-0.4-0.5v-0.2
					c0.2-0.2,0.4-0.5,0.6-0.8c0.2-0.3,0.4-0.6,0.4-0.9c0-0.2,0-0.5-0.2-0.9c-0.1-0.3-0.4-0.7-0.8-1.2c-0.1-0.1-0.3-0.2-0.4-0.4
					c-0.2-0.2-0.4-0.4-0.6-0.6c-0.3-0.2-0.6-0.5-0.9-0.8c-0.4-0.3-0.8-0.7-1.4-1.2l-7.2-6.2c-0.4-0.3-0.8-0.7-1.3-1.1
					c-0.5-0.4-1-0.8-1.5-1.1s-0.9-0.5-1.2-0.6c-0.4-0.1-0.7-0.1-0.9-0.1c-0.2,0.1-0.5,0.2-0.6,0.3c-0.2,0.1-0.5,0.4-0.9,0.9h-0.2
					l-0.6-0.3l-0.1-0.1c0.1-0.1,0.3-0.3,0.5-0.5s0.4-0.4,0.6-0.6c0.2-0.2,0.4-0.4,0.7-0.7c0.2-0.2,0.4-0.4,0.6-0.6l0.9-1
					c0.2-0.2,0.4-0.4,0.6-0.7c0.2-0.3,0.4-0.5,0.7-0.8c0.2-0.3,0.4-0.5,0.6-0.7c0.2-0.2,0.3-0.4,0.5-0.6c1.1-1.2,2.1-2.2,3.1-2.9
					s1.9-1.1,2.8-1.3c0.9-0.2,1.7-0.1,2.5,0.1c0.8,0.3,1.5,0.7,2.2,1.2c0.8,0.7,1.4,1.4,1.7,2.2s0.5,1.6,0.6,2.4
					c0,0.8-0.1,1.6-0.3,2.4c-0.2,0.8-0.5,1.5-0.8,2.1c1.3,0.1,2.7,0.2,4.1,0.3c1.4,0.1,2.7,0.1,4.1,0.1c0.7,0,1.4,0,2-0.1
					c0.6,0,1.2-0.1,1.7-0.3c0.6-0.2,1.1-0.4,1.6-0.7s1.1-0.8,1.7-1.3l0.3-0.1l0.5,0.4l0.1,0.2c-0.4,0.4-0.7,0.9-1.2,1.4
					c-0.4,0.5-0.8,0.9-1,1.2c-0.4,0.5-0.8,0.9-1.2,1.1c-0.4,0.3-0.9,0.5-1.4,0.6s-1.1,0.2-1.8,0.2s-1.5,0-2.4,0
					c-0.1,0-0.5,0-1.1-0.1s-1.3-0.1-2.2-0.2c-0.9-0.1-1.8-0.2-2.7-0.2c-1-0.1-1.8-0.2-2.7-0.3l-1.7,2c0.5,0.4,1.1,0.9,1.6,1.4
					c0.6,0.5,1.2,1,1.7,1.4c0.5,0.5,1,0.9,1.5,1.2c0.4,0.4,0.8,0.6,1,0.8c0.6,0.4,1,0.7,1.4,0.7c0.3,0,0.6,0,0.8,0
					c0.2-0.1,0.5-0.2,0.6-0.3c0.2-0.1,0.5-0.4,0.9-0.9h0.2L584,461.6L584,461.6z M574.6,453.4c1.3-1.5,1.9-3,1.8-4.2
					c-0.1-1.3-0.8-2.5-2-3.5c-1.1-1-2.3-1.3-3.6-1.1s-2.5,1-3.6,2.4l-2.1,2.4c0.5,0.5,0.9,0.9,1.3,1.2c0.4,0.3,0.7,0.6,0.9,0.9
					c0.3,0.3,0.5,0.5,0.7,0.7s0.4,0.4,0.6,0.5l2.7,2.3c0.2,0.2,0.4,0.4,0.6,0.5c0.2,0.1,0.3,0.1,0.4,0.1c0.1,0,0.3-0.1,0.4-0.2
					c0.1-0.1,0.3-0.3,0.5-0.5L574.6,453.4z"/>
			</g>
			<g>
				<path d="M587.9,414.7l17.3,3.6c0.8,0.2,1.4,0.3,1.9,0.4c0.5,0.1,1,0.2,1.3,0.2c0.4,0.1,0.7,0.1,0.9,0.2c0.3,0,0.5,0.1,0.6,0.1
					c0.7,0.1,1.2,0.1,1.6,0c0.4-0.1,0.8-0.2,1.1-0.4s0.5-0.4,0.7-0.6c0.2-0.2,0.4-0.5,0.5-0.8l0.2-0.1l0.6,0.3l0.1,0.1
					c-0.1,0.1-0.2,0.4-0.5,0.6c-0.2,0.3-0.4,0.6-0.6,0.9c-0.2,0.3-0.4,0.6-0.5,0.9c-0.2,0.3-0.3,0.5-0.4,0.6l-0.6,1
					c-0.1,0.1-0.2,0.4-0.4,0.7s-0.4,0.7-0.6,1c-0.2,0.4-0.4,0.7-0.6,1c-0.2,0.3-0.4,0.6-0.4,0.7H610l-0.5-0.4l-0.1-0.2
					c0.4-0.6,0.6-1.1,0.7-1.5c0.1-0.4-0.2-0.8-0.8-1.2c-0.5-0.3-1.3-0.5-2.3-0.8c-1.1-0.2-2.4-0.5-4-0.8l-1.8-0.4l-4.3,7l1.2,1.5
					c1,1.3,1.9,2.4,2.5,3.2c0.7,0.9,1.2,1.4,1.7,1.7c0.6,0.4,1.1,0.4,1.4,0.2c0.3-0.3,0.7-0.7,1.1-1.3l0.2-0.1l0.6,0.3v0.1
					c-0.1,0.1-0.2,0.4-0.4,0.7s-0.4,0.6-0.6,1c-0.2,0.3-0.4,0.7-0.6,1c-0.2,0.3-0.3,0.5-0.4,0.7l-0.4,0.6c-0.1,0.1-0.2,0.4-0.4,0.7
					s-0.4,0.6-0.6,0.9c-0.2,0.3-0.4,0.6-0.5,0.9c-0.1,0.3-0.3,0.5-0.3,0.7h-0.1l-0.5-0.4V439c0.2-0.3,0.3-0.5,0.4-0.8
					c0.1-0.3,0.2-0.6,0.2-0.9c0-0.3,0-0.7-0.2-1.1c-0.1-0.4-0.4-0.9-0.8-1.5c-0.1-0.1-0.2-0.3-0.3-0.4c-0.1-0.1-0.3-0.3-0.5-0.6
					s-0.5-0.6-0.8-1.1s-0.8-1-1.3-1.8c-0.5-0.7-1.2-1.6-2-2.7c-0.8-1-1.7-2.3-2.9-3.8c-0.6-0.7-1.1-1.4-1.7-2.2
					c-0.5-0.7-1-1.4-1.5-2.1c-0.5-0.6-0.9-1.2-1.2-1.7c-0.4-0.5-0.6-0.9-0.8-1.1l0.2-2.4L587.9,414.7z M595.9,425.8l3.7-6l-9.9-2
					L595.9,425.8z"/>
			</g>
			<g>
				<path d="M627.1,391.2c-0.1,0.2-0.2,0.4-0.3,0.7s-0.3,0.7-0.5,1.1c-0.2,0.4-0.3,0.7-0.5,1.1c-0.1,0.3-0.3,0.6-0.3,0.7l-0.8,1.9
					c-0.1,0.2-0.2,0.4-0.3,0.7s-0.3,0.7-0.5,1.1c-0.2,0.4-0.3,0.7-0.5,1.1c-0.1,0.3-0.3,0.6-0.3,0.7l-0.1,0.1l-0.6-0.4l-0.1-0.2
					c0.2-0.4,0.3-0.8,0.5-1.2c0.2-0.5,0.2-0.8,0.1-1.1c-0.1-0.2-0.2-0.5-0.4-0.8s-0.5-0.6-1.2-0.9c-0.1-0.1-0.3-0.2-0.5-0.3
					s-0.5-0.2-0.8-0.4c-0.3-0.1-0.7-0.3-1.1-0.5c-0.4-0.2-1-0.4-1.7-0.7l-6.8-2.9c-1.5-0.6-2.8-1.2-3.9-1.6c-1.1-0.5-2-0.8-2.6-1
					l-0.2,0.4c-0.5,1.1-0.9,2-1.2,2.8c-0.3,0.7-0.5,1.3-0.7,1.8s-0.3,0.8-0.3,1s-0.1,0.4,0,0.5c0.1,0.6,0.5,1.2,1.4,1.7l0.1,0.2
					l-0.3,0.8l-3.7-1.9l-0.2-0.3v-0.2c0.2-0.1,0.4-0.5,0.7-1.1s0.6-1.2,1-1.9c0.3-0.7,0.6-1.4,0.9-2.1c0.3-0.7,0.5-1.1,0.6-1.4
					l1.8-4.2c0.1-0.3,0.3-0.8,0.6-1.4c0.3-0.7,0.6-1.4,0.9-2.1c0.3-0.7,0.6-1.4,0.8-2s0.3-1.1,0.3-1.3l0.2-0.2h0.4l4,1.4l-0.3,0.8
					l-0.2,0.1c-1-0.3-1.7-0.2-2.2,0.2c-0.1,0.1-0.2,0.2-0.4,0.4c-0.1,0.2-0.3,0.5-0.5,0.9s-0.5,1-0.8,1.7s-0.7,1.6-1.2,2.7l-0.2,0.4
					c0.6,0.3,1.5,0.7,2.5,1.1c1.1,0.5,2.3,1,3.9,1.7l6.2,2.7c0.8,0.3,1.5,0.6,2,0.8s0.9,0.4,1.3,0.5s0.6,0.2,0.9,0.3
					c0.2,0.1,0.5,0.2,0.8,0.3c0.6,0.2,1.1,0.3,1.5,0.2c0.3-0.1,0.6-0.2,0.9-0.3c0.2-0.1,0.5-0.4,0.7-0.8s0.4-0.8,0.6-1.2l0.2-0.1
					L627.1,391.2L627.1,391.2z"/>
			</g>
			<g>
				<path d="M614.1,353.2c0.1-0.3,0.2-0.8,0.4-1.4c0.2-0.6,0.3-1.3,0.5-1.9c0.2-0.6,0.3-1.2,0.5-1.7c0.1-0.5,0.2-0.8,0.2-0.9
					l0.4-0.1l3.8,1.2l-0.2,0.9l-0.2,0.1c-0.6-0.1-1-0.1-1.3-0.1s-0.6,0.2-0.9,0.5c-0.2,0.4-0.5,0.9-0.7,1.7s-0.5,1.9-0.9,3.3
					l-0.9,3.4l1.3,0.4c0.4,0.1,0.7,0.2,0.9,0.3c0.3,0.1,0.6,0.2,0.9,0.3c0.4,0.1,0.8,0.2,1.3,0.4c0.5,0.1,1.8,0.5,3.8,1
					c0.2-0.7,0.4-1.4,0.6-2.1c0.2-0.7,0.4-1.4,0.5-1.9c0.2-0.6,0.2-1.1,0.3-1.5c0-0.4,0-0.7-0.2-0.9c-0.1-0.2-0.3-0.5-0.4-0.6
					c-0.2-0.2-0.4-0.3-0.8-0.4l-0.1-0.2l0.1-0.6l0.1-0.1c0.5,0.2,1,0.4,1.4,0.5s0.8,0.3,1.4,0.4c0.6,0.2,1.1,0.3,1.6,0.4
					c0.5,0.1,1,0.2,1.6,0.3v0.2l-0.2,0.6l-0.1,0.1c-0.4-0.1-0.8-0.1-1.1-0.1c-0.4,0.1-0.7,0.2-0.9,0.3s-0.4,0.3-0.5,0.7
					c-0.2,0.4-0.3,0.9-0.5,1.4c-0.2,0.6-0.3,1.2-0.5,1.9s-0.4,1.4-0.6,2.2l3.4,0.9c0.8,0.2,1.5,0.4,2.1,0.5c0.5,0.1,1,0.3,1.4,0.4
					c0.4,0.1,0.8,0.2,1.1,0.2c0.3,0.1,0.8,0.1,1.2,0.2c0.5,0.1,0.7-0.1,0.9-0.5l0.8-3c0.4-1.4,0.6-2.5,0.8-3.4
					c0.2-0.8,0.2-1.5,0.1-2c-0.1-0.5-0.3-0.9-0.6-1.1c-0.3-0.3-0.8-0.6-1.4-0.9l-0.1-0.2l0.2-0.9l4.3,1.8l0.3,0.4
					c0,0.1-0.1,0.4-0.2,0.8c-0.1,0.4-0.2,0.9-0.4,1.4c-0.1,0.5-0.3,1.1-0.4,1.6c-0.1,0.5-0.3,1-0.3,1.3l-1.9,7.2
					c0,0.2-0.1,0.4-0.2,0.8c-0.1,0.4-0.2,0.8-0.3,1.2s-0.2,0.8-0.3,1.2s-0.2,0.6-0.2,0.8l-0.1,0.1l-0.6-0.3l-0.1-0.2
					c0.1-0.4,0.2-0.7,0.2-1.1c0.1-0.3,0-0.6-0.1-0.9c-0.1-0.2-0.3-0.5-0.5-0.7s-0.6-0.5-1.3-0.7c-0.2,0-0.4-0.1-0.6-0.2
					c-0.2-0.1-0.5-0.2-0.8-0.3s-0.7-0.2-1.2-0.3s-1.1-0.3-1.8-0.5l-7.2-1.9c-0.8-0.2-1.5-0.4-2.1-0.6c-0.6-0.1-1.1-0.3-1.5-0.4
					c-0.4-0.1-0.7-0.2-1-0.3s-0.6-0.1-0.9-0.2c-0.7-0.1-1.1-0.1-1.5,0c-0.3,0.1-0.6,0.2-0.8,0.4s-0.4,0.4-0.5,0.7s-0.2,0.7-0.3,1
					l-0.2,0.1l-0.7-0.1v-0.1c0-0.2,0.1-0.4,0.2-0.8c0.1-0.4,0.2-0.8,0.3-1.2s0.2-0.9,0.3-1.3c0.1-0.4,0.2-0.8,0.3-1L614.1,353.2z"/>
			</g>
		</g>
		<g>
			<g>
				<path d="M176.2,217.8l-16.1-0.6c-0.7,0-1.3,0-1.8-0.1c-0.5,0-0.9,0-1.2,0c-0.3,0-0.6,0-0.8,0c-0.2,0-0.4,0-0.6,0
					c-0.6,0-1.1,0.1-1.5,0.2c-0.4,0.1-0.7,0.3-0.9,0.5c-0.2,0.2-0.4,0.4-0.5,0.7s-0.2,0.5-0.4,0.8l-0.2,0.1l-0.6-0.2l-0.1-0.1
					c0.1-0.1,0.2-0.3,0.3-0.6c0.1-0.3,0.3-0.6,0.4-0.9c0.1-0.3,0.2-0.6,0.4-0.9c0.1-0.3,0.2-0.5,0.3-0.6l0.4-1.1
					c0.1-0.1,0.2-0.4,0.3-0.7c0.1-0.3,0.3-0.7,0.4-1c0.1-0.4,0.3-0.7,0.4-1s0.2-0.6,0.3-0.7h0.1l0.5,0.3l0.1,0.2
					c-0.2,0.6-0.4,1.1-0.4,1.5s0.3,0.7,0.9,0.9c0.5,0.2,1.2,0.3,2.2,0.3s2.2,0.1,3.7,0.1l6.5,0.2c1.2,0,2.3,0.1,3.3,0.1
					s1.8,0.1,2.5,0.1c-0.5-0.5-1.1-1-1.8-1.7c-0.7-0.7-1.5-1.4-2.5-2.3l-4.8-4.4c-0.7-0.6-1.3-1.2-1.8-1.7s-1-0.9-1.4-1.3
					c-0.4,0-0.7,0-1.1,0s-0.7,0.1-1,0.2s-0.6,0.3-0.9,0.5s-0.5,0.6-0.8,1l-0.2,0.1l-0.6-0.2l-0.1-0.1c0.1-0.1,0.2-0.3,0.3-0.6
					c0.1-0.3,0.3-0.5,0.4-0.8s0.2-0.6,0.4-0.9c0.1-0.3,0.2-0.5,0.3-0.6l0.4-1c0.1-0.1,0.1-0.4,0.3-0.7c0.1-0.3,0.3-0.6,0.4-1
					c0.1-0.3,0.3-0.7,0.4-1s0.2-0.5,0.3-0.7l0.1-0.1l0.5,0.3l0.1,0.2c-0.1,0.2-0.2,0.5-0.2,0.8s0,0.6,0,0.8c0.1,0.3,0.2,0.5,0.3,0.7
					c0.2,0.2,0.4,0.4,0.6,0.5s0.4,0.1,0.5,0.1c0.6,0.1,1.3,0.1,2.1,0.1c0.8,0,1.8,0,3,0.1l6.5,0.2c1.2,0,2.3,0.1,3.3,0.1
					s1.8,0.1,2.5,0.1c-0.5-0.5-1.1-1-1.8-1.7c-0.7-0.6-1.5-1.4-2.5-2.3l-4.8-4.4c-1.1-1-2-1.8-2.8-2.5c-0.7-0.7-1.3-1.1-1.8-1.3
					c-0.6-0.2-1-0.2-1.3,0.1c-0.3,0.3-0.5,0.7-0.8,1.3l-0.2,0.1l-0.6-0.1v-0.1c0.1-0.1,0.2-0.4,0.3-0.7c0.1-0.3,0.3-0.6,0.4-1
					c0.1-0.3,0.3-0.6,0.4-1c0.1-0.3,0.2-0.5,0.3-0.7l0.2-0.6c0.1-0.1,0.1-0.4,0.3-0.6c0.1-0.3,0.2-0.6,0.4-0.9
					c0.1-0.3,0.2-0.6,0.3-0.9c0.1-0.3,0.2-0.5,0.2-0.7h0.1l0.5,0.3l0.1,0.2c-0.1,0.3-0.2,0.5-0.3,0.8c-0.1,0.3-0.1,0.5-0.1,0.8
					s0.1,0.6,0.3,1c0.2,0.4,0.5,0.8,0.9,1.2c0.1,0.1,0.3,0.3,0.5,0.5s0.6,0.6,1.2,1.1s1.4,1.3,2.5,2.3s2.5,2.4,4.4,4.1
					c0.6,0.6,1.2,1.2,1.9,1.8c0.7,0.6,1.3,1.2,1.8,1.8c0.6,0.6,1.1,1.1,1.5,1.5c0.5,0.4,0.8,0.7,1,0.9l-0.3,1.7l-0.2,0.4l-17.1-0.6
					c0.6,0.6,1.4,1.3,2.3,2.2c1,0.9,2.2,2.1,3.7,3.5c0.6,0.6,1.2,1.2,1.9,1.8c0.6,0.6,1.3,1.2,1.8,1.8c0.6,0.6,1.1,1,1.5,1.5
					c0.5,0.4,0.8,0.7,1,0.9l-0.3,1.7L176.2,217.8z"/>
			</g>
			<g>
				<path d="M179.4,161.3c0.2-0.2,0.4-0.6,0.7-1.1c0.3-0.5,0.6-1,0.9-1.5s0.6-1,0.9-1.4s0.4-0.7,0.5-0.8h0.3l3,2l-0.4,0.7h-0.2
					c-0.5-0.2-0.8-0.4-1.1-0.5c-0.3-0.1-0.6,0-0.9,0.2s-0.7,0.7-1,1.3c-0.4,0.6-0.9,1.5-1.6,2.6l-1.7,2.7l1.1,0.7
					c0.3,0.2,0.5,0.4,0.7,0.5s0.4,0.3,0.7,0.5c0.3,0.2,0.6,0.4,1.1,0.7c0.4,0.3,1.4,0.9,3,1.9c0.4-0.6,0.7-1.1,1.1-1.7
					s0.7-1.1,1-1.5c0.3-0.5,0.5-0.9,0.6-1.2c0.1-0.4,0.2-0.6,0.1-0.8c-0.1-0.2-0.1-0.5-0.2-0.7s-0.3-0.4-0.6-0.6l-0.1-0.2l0.2-0.5
					l0.1-0.1c0.4,0.3,0.8,0.6,1.1,0.8c0.3,0.2,0.7,0.5,1.1,0.7c0.5,0.3,0.9,0.5,1.3,0.7s0.8,0.4,1.3,0.7v0.2l-0.4,0.5l-0.2,0.1
					c-0.3-0.2-0.6-0.3-1-0.4c-0.3,0-0.6-0.1-0.9,0c-0.2,0-0.4,0.2-0.7,0.5c-0.3,0.3-0.5,0.7-0.8,1.1c-0.3,0.5-0.6,1-1,1.5
					c-0.4,0.6-0.7,1.1-1.1,1.7l2.7,1.7c0.7,0.4,1.2,0.8,1.7,1c0.4,0.3,0.8,0.5,1.1,0.7c0.3,0.2,0.6,0.4,0.9,0.5
					c0.3,0.2,0.6,0.3,1,0.5s0.7,0.1,0.9-0.2l1.5-2.4c0.7-1.1,1.2-2,1.6-2.7s0.6-1.2,0.6-1.7c0.1-0.4,0-0.8-0.2-1.2
					c-0.2-0.3-0.5-0.7-1-1.2v-0.2l0.5-0.7l3.2,2.7l0.1,0.4c-0.1,0.1-0.2,0.3-0.4,0.6c-0.2,0.3-0.5,0.7-0.7,1.1
					c-0.3,0.4-0.5,0.8-0.8,1.3c-0.3,0.4-0.5,0.8-0.6,1l-3.6,5.7c-0.1,0.1-0.2,0.4-0.4,0.7c-0.2,0.3-0.4,0.6-0.6,0.9
					s-0.4,0.6-0.6,0.9s-0.3,0.5-0.4,0.7h-0.1l-0.5-0.4v-0.2c0.2-0.3,0.3-0.6,0.5-0.9c0.1-0.3,0.2-0.5,0.2-0.8c0-0.2-0.1-0.5-0.2-0.8
					s-0.4-0.6-0.9-1c-0.1-0.1-0.3-0.2-0.5-0.3c-0.2-0.1-0.4-0.3-0.6-0.4c-0.3-0.2-0.6-0.4-1-0.6s-0.8-0.5-1.4-0.9l-5.7-3.6
					c-0.7-0.4-1.2-0.8-1.7-1c-0.5-0.3-0.8-0.5-1.2-0.7c-0.3-0.2-0.6-0.4-0.8-0.5c-0.2-0.1-0.5-0.3-0.7-0.4c-0.5-0.3-1-0.4-1.3-0.4
					s-0.6,0-0.8,0.1c-0.2,0.1-0.5,0.3-0.6,0.5c-0.2,0.2-0.4,0.5-0.6,0.8l-0.2,0.1l-0.6-0.2V169c0.1-0.1,0.2-0.3,0.4-0.7
					c0.2-0.3,0.4-0.6,0.6-1c0.2-0.3,0.4-0.7,0.6-1s0.4-0.6,0.5-0.8L179.4,161.3z"/>
			</g>
			<g>
				<path d="M197.9,140.3c-0.4-0.3-0.8-0.5-1.1-0.6c-0.3-0.1-0.6-0.1-0.8,0c-0.2,0.1-0.4,0.2-0.6,0.3c-0.2,0.1-0.5,0.4-0.8,0.8h-0.2
					l-0.5-0.3l-0.1-0.1c0.1-0.1,0.3-0.3,0.5-0.5s0.4-0.4,0.7-0.7c0.2-0.3,0.4-0.5,0.6-0.7s0.4-0.5,0.6-0.6l1.2-1.4
					c0.2-0.2,0.4-0.5,0.7-0.8c0.3-0.3,0.6-0.7,0.9-1s0.6-0.7,0.9-1s0.5-0.6,0.7-0.8c1.1-1.3,2.4-2.3,3.7-3c1.3-0.7,2.7-1,4.1-1.1
					s2.7,0.2,4.1,0.6c1.3,0.5,2.6,1.2,3.7,2.2s2,2,2.7,3.3c0.7,1.2,1.1,2.5,1.3,3.9c0.2,1.4,0,2.8-0.4,4.2c-0.5,1.5-1.3,2.9-2.5,4.3
					c-0.1,0.2-0.3,0.4-0.6,0.7c-0.3,0.3-0.5,0.6-0.8,1c-0.3,0.3-0.6,0.7-0.8,1c-0.3,0.3-0.5,0.6-0.6,0.7l-1.1,1.3
					c-0.1,0.1-0.3,0.3-0.5,0.6c-0.2,0.3-0.5,0.6-0.7,0.8c-0.2,0.3-0.5,0.6-0.7,0.8c-0.2,0.3-0.4,0.5-0.5,0.6h-0.1l-0.4-0.5v-0.2
					c0.2-0.2,0.4-0.5,0.6-0.7c0.2-0.3,0.3-0.6,0.4-0.8c0-0.2,0-0.5-0.2-0.8c-0.1-0.3-0.4-0.7-0.8-1.1c-0.1-0.1-0.3-0.2-0.4-0.4
					c-0.2-0.1-0.3-0.3-0.6-0.5c-0.2-0.2-0.5-0.5-0.9-0.7c-0.3-0.3-0.8-0.7-1.3-1.1l-5.2-4.4c-0.2-0.1-0.4-0.4-0.8-0.7
					c-0.3-0.3-0.7-0.6-1.1-0.9s-0.8-0.7-1.2-1C198.4,140.7,198.1,140.5,197.9,140.3z M215.9,146c0.9-1,1.4-2.1,1.7-3.2
					c0.3-1.1,0.3-2.2,0.2-3.3c-0.2-1.1-0.6-2.1-1.2-3.1s-1.4-2-2.4-2.8c-1-0.9-2.1-1.5-3.2-2s-2.2-0.7-3.3-0.7
					c-1.1,0-2.2,0.3-3.2,0.8s-2,1.2-2.9,2.3l-3,3.5c0.5,0.5,0.9,0.8,1.2,1.1c0.3,0.3,0.6,0.6,1,0.9c0.3,0.3,0.7,0.6,1.1,1
					c0.4,0.3,0.9,0.8,1.5,1.3l4.7,4c1,0.9,1.8,1.5,2.4,2s1,0.8,1.3,1c0.5,0.3,0.9,0.5,1.1,0.4c0.3-0.1,0.6-0.3,0.9-0.8L215.9,146z"
					/>
			</g>
			<g>
				<path d="M225.2,111.3c-0.4-0.4-0.7-0.6-1-0.8c-0.3-0.1-0.6-0.2-0.8-0.1c-0.2,0-0.4,0.1-0.6,0.2s-0.5,0.3-0.9,0.7h-0.2l-0.5-0.4
					v-0.1c0.1-0.1,0.3-0.2,0.6-0.4c0.2-0.2,0.5-0.3,0.8-0.6c0.3-0.2,0.5-0.4,0.8-0.6c0.2-0.2,0.5-0.4,0.6-0.6l1.4-1.2
					c0.2-0.2,0.5-0.4,0.8-0.7c0.3-0.3,0.7-0.6,1-0.9s0.7-0.6,1-0.9s0.6-0.5,0.8-0.7c1.3-1.1,2.7-1.9,4.1-2.3s2.8-0.6,4.2-0.4
					c1.4,0.2,2.7,0.6,3.9,1.3c1.2,0.7,2.3,1.6,3.3,2.7c0.9,1.1,1.7,2.3,2.2,3.7c0.5,1.3,0.7,2.7,0.7,4c-0.1,1.4-0.4,2.7-1.1,4.1
					s-1.7,2.6-3.1,3.8c-0.2,0.1-0.4,0.3-0.7,0.6c-0.3,0.3-0.6,0.5-1,0.8c-0.3,0.3-0.7,0.6-1,0.8c-0.3,0.3-0.6,0.5-0.8,0.6l-1.3,1.1
					c-0.1,0.1-0.3,0.3-0.6,0.5c-0.3,0.2-0.6,0.5-0.8,0.7c-0.3,0.2-0.6,0.5-0.8,0.7c-0.3,0.2-0.5,0.4-0.6,0.5h-0.1l-0.3-0.5v-0.2
					c0.2-0.2,0.4-0.4,0.7-0.6c0.2-0.3,0.4-0.5,0.5-0.7s0-0.5,0-0.8c-0.1-0.3-0.3-0.7-0.6-1.2c-0.1-0.1-0.2-0.3-0.3-0.4
					c-0.1-0.2-0.3-0.4-0.5-0.6s-0.4-0.5-0.7-0.9c-0.3-0.3-0.6-0.8-1.1-1.3l-4.4-5.2c-0.1-0.2-0.4-0.4-0.7-0.8
					c-0.3-0.3-0.6-0.7-0.9-1.1s-0.7-0.8-1-1.1C225.7,111.8,225.4,111.5,225.2,111.3z M242.1,119.7c1-0.9,1.8-1.8,2.2-2.8
					c0.5-1,0.7-2.1,0.7-3.2s-0.2-2.2-0.7-3.3c-0.5-1.1-1.1-2.2-2-3.2s-1.8-1.8-2.8-2.5c-1-0.6-2.1-1-3.2-1.2s-2.2-0.1-3.3,0.2
					c-1.1,0.3-2.2,0.9-3.2,1.8l-3.5,3c0.4,0.5,0.7,0.9,1,1.3c0.3,0.3,0.5,0.7,0.8,1c0.3,0.4,0.6,0.7,0.9,1.1s0.8,0.9,1.3,1.5l4,4.7
					c0.9,1,1.5,1.8,2,2.4s0.9,1,1.2,1.2c0.4,0.4,0.8,0.6,1,0.5c0.3,0,0.6-0.2,1.1-0.6L242.1,119.7z"/>
			</g>
			<g>
				<path d="M259.4,81.9l0.2,0.6v0.2c-0.3,0.2-0.6,0.4-0.8,0.6c-0.3,0.2-0.4,0.4-0.5,0.7c-0.1,0.2-0.1,0.5-0.1,0.8s0.2,0.7,0.5,1.3
					c0.2,0.3,0.3,0.5,0.4,0.8c0.1,0.2,0.3,0.5,0.5,0.8s0.4,0.7,0.7,1.1c0.3,0.4,0.6,1,1.1,1.7l3.3,5.2c0.4,0.7,0.8,1.2,1.1,1.6
					c0.3,0.4,0.5,0.8,0.7,1c0.2,0.3,0.4,0.5,0.5,0.7s0.3,0.4,0.5,0.6c0.4,0.5,0.7,0.8,1,0.9s0.5,0.2,0.7,0.2c0.3,0,0.5,0,0.8-0.2
					c0.3-0.1,0.6-0.3,0.9-0.5h0.2l0.4,0.5v0.1c-0.1,0.1-0.3,0.2-0.6,0.4c-0.3,0.2-0.6,0.4-0.9,0.6s-0.6,0.4-0.9,0.6
					s-0.5,0.3-0.6,0.4l-0.5,0.3c-0.1,0.1-0.3,0.2-0.6,0.4c-0.3,0.2-0.6,0.4-0.9,0.6s-0.6,0.4-0.9,0.6s-0.5,0.3-0.6,0.4h-0.1
					l-0.2-0.6l0.1-0.2c0.3-0.2,0.6-0.4,0.8-0.6c0.2-0.2,0.4-0.4,0.5-0.7c0.1-0.2,0.1-0.5,0.1-0.8s-0.1-0.7-0.4-1.3
					c-0.1-0.1-0.2-0.3-0.3-0.5c-0.1-0.2-0.2-0.4-0.4-0.7c-0.2-0.3-0.4-0.6-0.6-1s-0.5-0.8-0.9-1.4l-3.7-5.7
					c-0.4-0.7-0.8-1.2-1.1-1.7c-0.3-0.4-0.5-0.8-0.8-1.1c-0.2-0.3-0.4-0.6-0.6-0.8c-0.2-0.2-0.3-0.4-0.5-0.6
					c-0.4-0.5-0.7-0.8-0.9-0.9c-0.3-0.1-0.5-0.2-0.8-0.3c-0.3,0-0.5,0-0.8,0.2c-0.3,0.1-0.6,0.3-0.9,0.5h-0.2l-0.4-0.5v-0.1
					c0.1-0.1,0.3-0.2,0.6-0.4c0.3-0.2,0.6-0.4,0.9-0.6s0.6-0.4,0.9-0.6s0.5-0.3,0.6-0.4l0.5-0.3c0.1-0.1,0.3-0.2,0.6-0.4
					c0.3-0.2,0.6-0.4,0.9-0.6s0.6-0.4,0.9-0.6C259,82.2,259.2,82,259.4,81.9L259.4,81.9z"/>
			</g>
			<g>
				<path d="M295.4,63.2l0.2,0.6l-0.1,0.2c-0.3,0.2-0.6,0.3-0.9,0.5s-0.5,0.4-0.6,0.6s-0.2,0.5-0.2,0.8s0.1,0.7,0.3,1.3
					c0.1,0.3,0.2,0.6,0.3,0.8c0.1,0.2,0.2,0.5,0.4,0.9c0.1,0.3,0.3,0.7,0.5,1.2s0.5,1.1,0.8,1.8l2.5,5.3c0.5,1.1,1,2.1,1.3,2.8
					c0.4,0.7,0.6,1.3,0.9,1.8s0.5,1,0.7,1.3c0.2,0.4,0.5,0.8,0.7,1.3l-0.2,0.2l-1.9,0.9l-0.5-0.2l-18.3-11.1
					c0.1,0.2,0.2,0.4,0.3,0.6c0.1,0.2,0.2,0.5,0.3,0.8c0.1,0.3,0.3,0.6,0.5,1s0.4,0.9,0.7,1.4l2.6,5.6c0.1,0.2,0.3,0.6,0.4,1
					c0.2,0.4,0.4,0.8,0.6,1.2c0.2,0.4,0.4,0.8,0.6,1.2c0.2,0.4,0.4,0.7,0.5,0.9c0.3,0.5,0.5,0.8,0.8,1c0.2,0.2,0.5,0.3,0.8,0.4
					c0.2,0,0.5,0,0.7-0.1c0.3-0.1,0.6-0.2,1-0.4l0.2,0.1l0.3,0.5v0.1c-0.1,0.1-0.4,0.2-0.7,0.3c-0.3,0.1-0.6,0.3-0.9,0.4
					c-0.3,0.2-0.6,0.3-0.9,0.4s-0.5,0.2-0.7,0.3l-0.6,0.3c-0.1,0.1-0.4,0.2-0.7,0.3c-0.3,0.1-0.7,0.3-1,0.5s-0.7,0.3-1,0.5
					s-0.6,0.3-0.7,0.3h-0.1l-0.2-0.6l0.1-0.2c0.4-0.2,0.7-0.3,0.9-0.5c0.2-0.1,0.4-0.3,0.6-0.6c0.1-0.2,0.2-0.4,0.2-0.7
					c0-0.3,0-0.8-0.3-1.4c0-0.1-0.1-0.3-0.2-0.5s-0.2-0.4-0.3-0.7c-0.1-0.3-0.3-0.6-0.5-1s-0.4-0.9-0.7-1.5L281,79
					c-0.3-0.7-0.6-1.3-0.8-1.8c-0.2-0.5-0.4-0.9-0.6-1.2c-0.2-0.3-0.3-0.6-0.4-0.9c-0.1-0.2-0.3-0.5-0.4-0.7
					c-0.2-0.4-0.5-0.7-0.8-0.9c-0.3-0.2-0.5-0.4-0.8-0.4c-0.2-0.1-0.5,0-0.8,0.1s-0.6,0.2-0.9,0.4h-0.2l-0.3-0.5v-0.2
					c0.1-0.1,0.4-0.2,0.6-0.3c0.3-0.1,0.6-0.2,0.9-0.3c0.3-0.1,0.6-0.2,0.9-0.3c0.3-0.1,0.5-0.2,0.6-0.3l1.1-0.5
					c0.2-0.1,0.4-0.2,0.7-0.3c0.3-0.1,0.5-0.3,0.7-0.4h0.2c0.2,0.2,0.6,0.6,1,0.9c0.5,0.4,1,0.8,1.7,1.2c0.6,0.4,1.3,0.9,2.1,1.4
					c0.7,0.5,1.5,1,2.2,1.4c2.7,1.7,5,3.1,6.8,4.1c1.9,1,3.1,1.7,3.6,2c-0.1-0.1-0.1-0.3-0.2-0.4c0-0.1-0.1-0.3-0.2-0.4
					c-0.1-0.2-0.2-0.4-0.3-0.6c-0.1-0.2-0.3-0.6-0.5-1L294,73c-0.3-0.7-0.6-1.3-0.8-1.8c-0.2-0.5-0.4-0.9-0.6-1.2
					c-0.2-0.3-0.3-0.6-0.4-0.9c-0.1-0.2-0.3-0.5-0.4-0.7c-0.3-0.5-0.6-0.9-0.8-1c-0.2-0.2-0.5-0.3-0.7-0.3c-0.2-0.1-0.5,0-0.8,0.1
					s-0.6,0.2-0.9,0.4l-0.2-0.1l-0.3-0.5v-0.1c0.1-0.1,0.3-0.2,0.6-0.3c0.3-0.1,0.5-0.2,0.8-0.3c0.3-0.1,0.6-0.2,0.8-0.3
					c0.3-0.1,0.5-0.2,0.6-0.3l1.4-0.7c0.1-0.1,0.3-0.2,0.6-0.3c0.3-0.1,0.5-0.3,0.8-0.4c0.3-0.2,0.5-0.3,0.8-0.4s0.4-0.3,0.6-0.3
					L295.4,63.2z"/>
			</g>
			<g>
				<path d="M336.7,71.8c-0.9,0.6-1.9,1.2-3,1.7s-2.2,1-3.4,1.3c-1.9,0.5-3.6,0.7-5.1,0.5s-2.9-0.6-4.1-1.3c-1.2-0.7-2.2-1.7-3-2.8
					c-0.8-1.2-1.4-2.5-1.9-3.9c-0.4-1.5-0.6-3-0.5-4.5s0.5-2.8,1.1-4.1c0.7-1.3,1.6-2.4,2.8-3.3c1.2-1,2.8-1.7,4.6-2.2
					c0.4-0.1,0.9-0.2,1.4-0.4c0.5-0.2,1.1-0.3,1.8-0.4c0.6-0.1,1.3-0.1,1.9-0.2c0.7,0,1.3,0,1.9,0l0.1,0.3l0.4,3.3l-0.9,0.3
					l-0.2-0.1c-0.4-0.8-1.1-1.3-2.1-1.6c-1-0.2-2.3-0.1-4.1,0.4c-2.4,0.7-4.1,1.7-5.1,3.1c-0.4,0.6-0.7,1.2-0.9,1.8
					c-0.2,0.7-0.3,1.4-0.4,2.1c-0.1,0.7,0,1.5,0.1,2.3s0.2,1.5,0.4,2.2c0.4,1.4,1,2.7,1.7,3.7s1.6,1.8,2.5,2.4s2,0.9,3.1,1
					s2.3,0,3.5-0.3c0.4-0.1,0.8-0.2,1.2-0.4c0.5-0.1,0.9-0.3,1.3-0.5c0.4-0.2,0.8-0.4,1.1-0.6s0.5-0.3,0.6-0.5s0.2-0.4,0.1-0.8
					c0-0.2-0.1-0.4-0.2-0.6c-0.1-0.3-0.2-0.5-0.2-0.8c-0.1-0.3-0.2-0.6-0.3-0.9s-0.2-0.5-0.3-0.7c-0.2-0.5-0.4-0.9-0.7-1.2
					c-0.3-0.2-0.5-0.4-0.6-0.4c-0.2-0.1-0.6-0.1-0.9,0c-0.4,0.1-0.8,0.2-1.1,0.3l-0.2-0.1l-0.3-0.7h0.1c0.1,0,0.4-0.1,0.7-0.2
					s0.7-0.2,1-0.3c0.4-0.1,0.7-0.2,1-0.3c0.3-0.1,0.6-0.2,0.7-0.2l1-0.3c0.1,0,0.4-0.1,0.6-0.2c0.3-0.1,0.5-0.2,0.8-0.3
					c0.3-0.1,0.5-0.2,0.8-0.3c0.3-0.1,0.5-0.1,0.6-0.2l0.1,0.1l0.2,0.8l-0.1,0.2c-0.6,0.2-1,0.5-1.1,0.9s-0.1,1,0,1.7
					c0.1,0.5,0.2,1.1,0.4,1.7s0.3,1.1,0.4,1.4c0.1,0.3,0.2,0.7,0.3,1c0.1,0.4,0.2,0.6,0.3,0.7L336.7,71.8z"/>
			</g>
			<g>
				<path d="M404.3,44.3l-0.1,0.6l-0.1,0.1c-0.4,0-0.7,0-1,0s-0.6,0.1-0.8,0.3c-0.2,0.1-0.4,0.3-0.5,0.6c-0.2,0.2-0.3,0.7-0.3,1.3
					c0,0.3-0.1,0.6-0.1,0.9s0,0.6-0.1,0.9c0,0.4,0,0.8-0.1,1.3c0,0.5,0,1.2-0.1,2l-0.2,6.1c0,0.8,0,1.5-0.1,2c0,0.5,0,0.9,0,1.3
					c0,0.3,0,0.6,0,0.9c0,0.2,0,0.5,0,0.8c0,0.6,0.1,1.1,0.3,1.3c0.1,0.2,0.3,0.5,0.5,0.6c0.2,0.2,0.5,0.3,0.8,0.3s0.7,0.1,1,0.1
					l0.1,0.1l0.1,0.6h-0.1c-0.2,0-0.4,0-0.8,0c-0.4,0-0.7,0-1.1,0c-0.4,0-0.7,0-1.1,0c-0.4,0-0.6,0-0.8,0h-0.6c-0.2,0-0.4,0-0.8,0
					c-0.4,0-0.7,0-1.1,0c-0.4,0-0.7,0-1.1,0c-0.4,0-0.6,0-0.8,0h-0.1l0.1-0.6l0.2-0.1c0.4,0,0.7,0,1,0s0.6-0.1,0.8-0.3
					c0.2-0.1,0.4-0.3,0.5-0.6c0.2-0.2,0.3-0.7,0.4-1.3c0-0.2,0-0.3,0-0.5s0-0.5,0.1-0.8c0-0.3,0-0.7,0-1.1s0-1,0.1-1.7l0.2-6.8
					c0-0.8,0-1.4,0.1-2c0-0.5,0-1,0-1.4s0-0.7,0-1s0-0.5,0-0.8c0-0.6-0.1-1-0.3-1.3c-0.1-0.3-0.3-0.5-0.5-0.6
					c-0.2-0.2-0.4-0.3-0.8-0.3c-0.3,0-0.6-0.1-1-0.1l-0.2-0.1l-0.1-0.6h0.1c0.2,0,0.4,0,0.8,0c0.4,0,0.7,0,1.1,0c0.4,0,0.7,0,1.1,0
					c0.4,0,0.6,0,0.8,0h0.6c0.2,0,0.4,0,0.8,0c0.4,0,0.7,0,1.1,0c0.4,0,0.7,0,1.1,0C403.8,44.3,404.1,44.3,404.3,44.3L404.3,44.3z"
					/>
			</g>
			<g>
				<path d="M444.6,49.3l-0.2,0.6l-0.2,0.1c-0.4-0.1-0.7-0.1-1-0.1s-0.6,0-0.8,0.2c-0.2,0.1-0.4,0.3-0.6,0.5
					c-0.2,0.2-0.3,0.6-0.5,1.2c-0.1,0.3-0.1,0.6-0.2,0.9c-0.1,0.3-0.1,0.6-0.2,0.9c-0.1,0.3-0.1,0.8-0.2,1.3
					c-0.1,0.5-0.2,1.2-0.3,1.9l-1,5.8c-0.2,1.2-0.4,2.2-0.5,3s-0.2,1.5-0.3,2c-0.1,0.6-0.1,1.1-0.2,1.5c0,0.4-0.1,0.9-0.1,1.5
					l-0.3,0.1l-2-0.3l-0.3-0.5l-8.8-19.6c0,0.2-0.1,0.4-0.1,0.7c0,0.2-0.1,0.5-0.2,0.8c-0.1,0.3-0.1,0.7-0.2,1.1
					c-0.1,0.4-0.2,0.9-0.3,1.5l-1,6.1c0,0.3-0.1,0.6-0.2,1c-0.1,0.4-0.1,0.9-0.2,1.3c-0.1,0.5-0.1,0.9-0.2,1.3
					c-0.1,0.4-0.1,0.8-0.1,1c0,0.6,0,1,0.1,1.3s0.2,0.5,0.4,0.7s0.4,0.3,0.6,0.4c0.3,0.1,0.6,0.2,1.1,0.2l0.1,0.2v0.6h-0.1
					c-0.2,0-0.4-0.1-0.7-0.1c-0.3-0.1-0.7-0.1-1-0.2c-0.4-0.1-0.7-0.1-1-0.2s-0.6-0.1-0.7-0.1l-0.6-0.1c-0.2,0-0.4-0.1-0.8-0.1
					c-0.4-0.1-0.7-0.1-1.1-0.2c-0.4-0.1-0.7-0.1-1.1-0.2c-0.4-0.1-0.6-0.1-0.8-0.1h-0.1l0.2-0.6l0.2-0.1c0.4,0.1,0.7,0.1,1,0.1
					s0.5,0,0.8-0.2c0.2-0.1,0.4-0.2,0.6-0.5c0.2-0.2,0.4-0.7,0.6-1.3c0-0.1,0.1-0.3,0.1-0.5s0.1-0.5,0.1-0.8
					c0.1-0.3,0.1-0.7,0.2-1.1c0.1-0.4,0.2-1,0.3-1.6l1.1-6.7c0.1-0.8,0.2-1.4,0.3-1.9s0.2-1,0.2-1.4c0.1-0.4,0.1-0.7,0.1-1
					s0.1-0.5,0.1-0.8c0-0.5,0-0.9-0.1-1.2c-0.1-0.3-0.2-0.6-0.4-0.8c-0.2-0.2-0.4-0.3-0.7-0.4s-0.6-0.2-1-0.2l-0.1-0.2v-0.6l0.1-0.1
					c0.2,0,0.4,0.1,0.7,0.1c0.3,0.1,0.6,0.1,0.9,0.2c0.3,0.1,0.6,0.1,0.9,0.2c0.3,0.1,0.5,0.1,0.7,0.1l1.2,0.2
					c0.2,0,0.4,0.1,0.7,0.1c0.3,0.1,0.6,0.1,0.8,0l0.1,0.1c0,0.3,0.1,0.8,0.3,1.4s0.4,1.2,0.7,2c0.3,0.7,0.6,1.5,0.9,2.3
					c0.3,0.8,0.7,1.6,1,2.4c1.2,3,2.3,5.4,3.3,7.3s1.6,3.1,1.8,3.7c0-0.2,0.1-0.3,0.1-0.4s0.1-0.3,0.1-0.5s0.1-0.4,0.1-0.7
					c0-0.3,0.1-0.6,0.2-1.1L438,56c0.1-0.8,0.2-1.4,0.3-1.9s0.2-1,0.2-1.4c0.1-0.4,0.1-0.7,0.1-1s0.1-0.5,0.1-0.8
					c0.1-0.6,0-1.1-0.1-1.3c-0.1-0.3-0.2-0.5-0.4-0.7s-0.4-0.3-0.7-0.4s-0.6-0.2-1-0.2l-0.1-0.2v-0.6l0.1-0.1c0.2,0,0.4,0.1,0.7,0.1
					c0.3,0.1,0.6,0.1,0.9,0.2c0.3,0.1,0.6,0.1,0.9,0.2c0.3,0.1,0.5,0.1,0.7,0.1l1.5,0.3c0.2,0,0.4,0.1,0.7,0.1s0.6,0.1,0.9,0.1
					c0.3,0,0.6,0.1,0.9,0.1c0.3,0,0.5,0,0.7,0L444.6,49.3z"/>
			</g>
			<g>
				<path d="M464,77.8l-0.4-16.1c0-0.7,0-1.3-0.1-1.8c0-0.5,0-0.9-0.1-1.2c0-0.3,0-0.6-0.1-0.8c0-0.2,0-0.4,0-0.6
					c-0.1-0.6-0.2-1.1-0.3-1.5s-0.3-0.7-0.5-0.9c-0.2-0.2-0.4-0.4-0.7-0.5s-0.5-0.2-0.8-0.3l-0.1-0.2l0.1-0.6l0.1-0.1
					c0.1,0,0.4,0.1,0.6,0.3c0.3,0.1,0.6,0.2,0.9,0.3c0.3,0.1,0.6,0.2,0.9,0.3c0.3,0.1,0.5,0.2,0.7,0.2l1.1,0.4
					c0.1,0.1,0.4,0.1,0.7,0.2s0.7,0.2,1.1,0.4c0.4,0.1,0.7,0.2,1.1,0.4c0.3,0.1,0.6,0.2,0.7,0.2L469,56l-0.3,0.5l-0.2,0.1
					c-0.6-0.2-1.1-0.3-1.5-0.3s-0.7,0.3-0.9,1c-0.2,0.5-0.2,1.2-0.2,2.2s0.1,2.2,0.1,3.7l0.2,6.5c0,1.2,0.1,2.3,0.1,3.3
					s0,1.8,0.1,2.5c0.4-0.5,1-1.2,1.6-1.9c0.6-0.7,1.3-1.6,2.1-2.7l4.1-5.1c0.9-1.2,1.7-2.1,2.3-2.9s1-1.4,1.2-1.9
					c0.2-0.6,0.2-1-0.1-1.3c-0.3-0.2-0.7-0.5-1.4-0.7l-0.1-0.2l0.1-0.6h0.1c0.1,0,0.4,0.1,0.7,0.2s0.6,0.2,1,0.3
					c0.3,0.1,0.7,0.2,1,0.3c0.3,0.1,0.5,0.2,0.7,0.2l0.6,0.2c0.1,0.1,0.4,0.1,0.6,0.2c0.3,0.1,0.6,0.2,0.9,0.3
					c0.3,0.1,0.6,0.2,0.9,0.3c0.3,0.1,0.5,0.1,0.7,0.2v0.1l-0.3,0.5l-0.2,0.1c-0.3-0.1-0.5-0.2-0.8-0.2c-0.3-0.1-0.5-0.1-0.8,0
					s-0.6,0.2-1,0.4c-0.3,0.2-0.7,0.5-1.2,1c-0.1,0.2-0.3,0.3-0.5,0.5s-0.6,0.6-1.1,1.2s-1.2,1.5-2.2,2.6s-2.2,2.7-3.8,4.6
					c-0.5,0.6-1.1,1.3-1.7,2c-0.6,0.7-1.1,1.3-1.6,2c-0.5,0.6-1,1.2-1.4,1.6c-0.4,0.5-0.7,0.8-0.8,1l-1.8-0.2L464,77.8z"/>
			</g>
			<g>
				<path d="M505.7,71l-0.4,0.5l-0.2,0.1c-0.3-0.2-0.6-0.3-0.9-0.4c-0.3-0.1-0.6-0.1-0.8-0.1c-0.2,0.1-0.5,0.2-0.7,0.3
					c-0.2,0.2-0.5,0.5-0.8,1c-0.2,0.3-0.3,0.5-0.4,0.8c-0.1,0.2-0.3,0.5-0.4,0.8c-0.2,0.3-0.4,0.7-0.6,1.2c-0.2,0.5-0.5,1-0.9,1.8
					l-2.7,5.5c-0.4,0.7-0.6,1.3-0.9,1.8c-0.2,0.5-0.4,0.8-0.5,1.1c-0.1,0.3-0.3,0.6-0.3,0.8c-0.1,0.2-0.2,0.4-0.3,0.7
					c-0.2,0.6-0.3,1-0.3,1.3s0.1,0.5,0.2,0.8c0.1,0.2,0.3,0.4,0.6,0.6s0.6,0.3,0.9,0.5l0.1,0.2l-0.2,0.6h-0.1
					c-0.1-0.1-0.4-0.2-0.7-0.3c-0.3-0.2-0.7-0.3-1-0.5s-0.7-0.3-1-0.5s-0.6-0.3-0.7-0.3l-0.6-0.3c-0.1-0.1-0.4-0.2-0.7-0.3
					c-0.3-0.2-0.7-0.3-1-0.5s-0.7-0.3-1-0.5s-0.5-0.3-0.7-0.3v-0.1l0.4-0.5h0.2c0.3,0.2,0.6,0.3,0.9,0.4c0.3,0.1,0.6,0.1,0.8,0.1
					c0.2-0.1,0.5-0.2,0.7-0.3c0.3-0.2,0.5-0.5,0.9-1c0.1-0.1,0.2-0.3,0.3-0.5s0.2-0.4,0.4-0.7c0.1-0.3,0.3-0.6,0.5-1
					s0.4-0.9,0.7-1.5l2.9-6.1c0.3-0.7,0.6-1.3,0.9-1.8c0.2-0.5,0.4-0.9,0.6-1.2c0.2-0.3,0.3-0.6,0.4-0.9c0.1-0.2,0.2-0.5,0.3-0.7
					c0.2-0.5,0.3-1,0.3-1.3s-0.1-0.6-0.2-0.8c-0.1-0.2-0.3-0.4-0.6-0.6s-0.6-0.3-0.9-0.5l-0.1-0.2l0.2-0.6h0.1
					c0.1,0.1,0.4,0.2,0.7,0.3c0.3,0.2,0.6,0.3,1,0.5c0.3,0.2,0.7,0.3,1,0.5s0.6,0.3,0.7,0.3l0.6,0.3c0.1,0.1,0.4,0.2,0.7,0.3
					c0.3,0.2,0.6,0.3,1,0.5c0.3,0.2,0.7,0.3,1,0.5C505.3,70.7,505.6,70.8,505.7,71L505.7,71z"/>
			</g>
			<g>
				<path d="M520.8,105.2c-0.1-0.1-0.3-0.2-0.6-0.4c-0.3-0.2-0.6-0.4-0.9-0.6c-0.3-0.2-0.6-0.4-0.9-0.6c-0.3-0.2-0.5-0.3-0.6-0.4
					l-1.6-1c-0.1-0.1-0.3-0.2-0.6-0.4c-0.3-0.2-0.6-0.4-0.9-0.6c-0.3-0.2-0.6-0.4-0.9-0.6c-0.3-0.2-0.5-0.3-0.6-0.4v-0.1l0.4-0.4
					h0.2c0.3,0.2,0.6,0.4,1,0.6s0.7,0.3,0.9,0.3s0.5-0.1,0.8-0.2s0.6-0.4,1-0.9c0.1-0.1,0.2-0.3,0.3-0.4c0.1-0.2,0.3-0.4,0.5-0.6
					c0.2-0.3,0.4-0.6,0.6-0.9c0.2-0.4,0.5-0.8,0.9-1.4l3.7-5.7c0.8-1.2,1.5-2.3,2.1-3.3s1-1.7,1.3-2.2l-0.3-0.2
					c-0.9-0.6-1.7-1.1-2.3-1.5s-1.1-0.7-1.5-0.9c-0.4-0.2-0.7-0.3-0.9-0.4s-0.4-0.1-0.5-0.1c-0.6,0-1.1,0.3-1.7,1h-0.2l-0.6-0.4
					l2.3-3.1l0.3-0.2h0.2c0.1,0.2,0.4,0.4,0.9,0.8s1,0.8,1.6,1.2c0.6,0.4,1.2,0.8,1.7,1.1c0.6,0.4,0.9,0.6,1.2,0.8l3.5,2.3
					c0.2,0.2,0.6,0.4,1.2,0.8c0.6,0.4,1.1,0.7,1.7,1.1c0.6,0.4,1.2,0.7,1.7,1s0.9,0.4,1.1,0.5l0.1,0.2l-0.1,0.3l-1.8,3.3l-0.7-0.4
					V92c0.4-0.8,0.5-1.5,0.2-2c0-0.1-0.1-0.2-0.3-0.4c-0.2-0.2-0.4-0.4-0.8-0.6c-0.3-0.3-0.8-0.6-1.4-1c-0.6-0.4-1.4-0.9-2.3-1.5
					l-0.3-0.2c-0.4,0.5-0.8,1.2-1.4,2.1c-0.6,0.9-1.3,1.9-2.1,3.2l-3.3,5.2c-0.4,0.7-0.8,1.2-1.1,1.6s-0.5,0.8-0.7,1.1
					c-0.2,0.3-0.3,0.5-0.4,0.7c-0.1,0.2-0.2,0.4-0.4,0.7c-0.3,0.5-0.4,1-0.4,1.3s0.1,0.6,0.2,0.8c0.1,0.2,0.3,0.5,0.6,0.7
					s0.7,0.5,1,0.7l0.1,0.2L520.8,105.2L520.8,105.2z"/>
			</g>
			<g>
				<path d="M558.1,105.8l-5.7,15.1c-0.3,0.6-0.5,1.2-0.6,1.6c-0.2,0.4-0.3,0.8-0.4,1.1c-0.1,0.3-0.2,0.6-0.3,0.8
					c-0.1,0.2-0.1,0.4-0.2,0.6c-0.2,0.6-0.3,1.1-0.3,1.5s0.1,0.7,0.2,1c0.1,0.3,0.3,0.5,0.5,0.7s0.4,0.4,0.6,0.6v0.2l-0.3,0.5
					l-0.1,0.1c-0.1-0.1-0.3-0.3-0.5-0.5s-0.4-0.5-0.7-0.7s-0.5-0.4-0.7-0.6c-0.2-0.2-0.4-0.3-0.5-0.5l-0.8-0.7
					c-0.1-0.1-0.3-0.3-0.6-0.5s-0.6-0.5-0.8-0.7c-0.3-0.3-0.6-0.5-0.8-0.7c-0.3-0.2-0.5-0.4-0.6-0.5v-0.1l0.5-0.4h0.2
					c0.5,0.4,0.9,0.7,1.3,0.8c0.4,0.1,0.8-0.1,1.2-0.6c0.3-0.4,0.7-1,1-2c0.3-0.9,0.8-2.1,1.3-3.5l0.6-1.6l-5.7-4.9l-1.5,0.8
					c-1.3,0.7-2.4,1.3-3.3,1.8c-0.9,0.5-1.5,0.9-1.8,1.3c-0.4,0.5-0.5,0.9-0.4,1.2c0.2,0.3,0.5,0.7,1,1.1v0.2l-0.3,0.5h-0.1
					c-0.1-0.1-0.3-0.3-0.6-0.5s-0.5-0.4-0.8-0.7c-0.3-0.2-0.5-0.5-0.8-0.7s-0.4-0.4-0.6-0.5l-0.5-0.4c-0.1-0.1-0.3-0.3-0.5-0.5
					s-0.5-0.4-0.7-0.6c-0.3-0.2-0.5-0.4-0.8-0.6s-0.4-0.3-0.6-0.4l0.1-0.1l0.4-0.4h0.2c0.2,0.2,0.4,0.4,0.7,0.5
					c0.2,0.2,0.5,0.3,0.8,0.3c0.3,0.1,0.6,0.1,1,0s0.9-0.2,1.4-0.5c0.1,0,0.3-0.1,0.4-0.2c0.1-0.1,0.3-0.2,0.6-0.3
					c0.3-0.1,0.7-0.3,1.1-0.6c0.5-0.2,1-0.6,1.8-0.9c0.7-0.4,1.6-0.9,2.7-1.4c1.1-0.6,2.3-1.2,3.8-2c0.7-0.4,1.5-0.8,2.2-1.2
					c0.7-0.4,1.4-0.7,2.1-1.1c0.6-0.3,1.2-0.6,1.7-0.9c0.5-0.2,0.9-0.4,1.1-0.6l2.1,0.5L558.1,105.8z M547,111.3l4.8,4.2l3.2-8.6
					L547,111.3z"/>
			</g>
			<g>
				<path d="M568.5,148c-0.1-0.1-0.3-0.3-0.5-0.6c-0.2-0.3-0.5-0.5-0.7-0.8c-0.3-0.3-0.5-0.6-0.7-0.8c-0.2-0.3-0.4-0.4-0.5-0.6
					l-1.3-1.4c-0.1-0.1-0.3-0.3-0.5-0.6c-0.2-0.2-0.5-0.5-0.7-0.8s-0.5-0.5-0.7-0.8s-0.4-0.4-0.5-0.6v-0.1l0.5-0.3h0.2
					c0.2,0.3,0.5,0.6,0.8,0.9s0.6,0.5,0.8,0.5s0.5,0,0.8,0s0.7-0.2,1.2-0.6c0.1-0.1,0.3-0.2,0.4-0.3c0.2-0.1,0.4-0.3,0.6-0.5
					c0.2-0.2,0.5-0.4,0.9-0.7c0.3-0.3,0.8-0.7,1.3-1.1l5.1-4.5c1.1-1,2-1.8,2.9-2.6c0.8-0.8,1.5-1.3,1.9-1.7l-0.2-0.3
					c-0.7-0.8-1.3-1.5-1.8-2.1c-0.5-0.5-0.9-1-1.2-1.3s-0.6-0.5-0.7-0.7c-0.2-0.1-0.3-0.2-0.4-0.2c-0.5-0.2-1.2,0-1.9,0.5h-0.2
					l-0.5-0.6l3-2.3l0.3-0.1l0.2,0.1c0.1,0.2,0.3,0.5,0.6,1s0.8,1,1.2,1.5c0.5,0.5,0.9,1,1.4,1.5c0.4,0.5,0.7,0.8,0.9,1.1l2.8,3.2
					c0.2,0.2,0.5,0.6,0.9,1.1s0.9,1,1.4,1.5s0.9,1,1.4,1.4c0.4,0.4,0.8,0.6,0.9,0.7l0.1,0.2l-0.1,0.3l-2.7,2.7l-0.5-0.6v-0.2
					c0.6-0.7,0.8-1.3,0.7-1.8c0-0.1-0.1-0.3-0.2-0.5c-0.1-0.2-0.3-0.5-0.5-0.8c-0.3-0.3-0.6-0.8-1.1-1.3s-1.1-1.2-1.8-2l-0.2-0.3
					c-0.5,0.4-1.1,1-1.9,1.6c-0.8,0.7-1.8,1.5-2.9,2.5l-4.6,4.1c-0.6,0.5-1.1,1-1.5,1.3s-0.7,0.6-0.9,0.8c-0.2,0.2-0.5,0.4-0.6,0.6
					c-0.2,0.2-0.3,0.3-0.5,0.5c-0.4,0.4-0.7,0.8-0.7,1.1c-0.1,0.3-0.1,0.6-0.1,0.8c0,0.2,0.1,0.5,0.4,0.9c0.3,0.4,0.5,0.7,0.8,0.9
					v0.2L568.5,148L568.5,148z"/>
			</g>
			<g>
				<path d="M603.2,157.8l-0.6,0.3h-0.2c-0.2-0.3-0.4-0.6-0.6-0.8c-0.2-0.2-0.4-0.4-0.7-0.5c-0.2-0.1-0.5-0.1-0.8-0.1
					s-0.7,0.2-1.2,0.5c-0.3,0.2-0.5,0.3-0.7,0.4s-0.5,0.3-0.8,0.5s-0.7,0.4-1.1,0.7c-0.4,0.3-1,0.7-1.6,1.1l-5.1,3.5
					c-0.7,0.5-1.2,0.8-1.6,1.1c-0.4,0.3-0.8,0.5-1,0.7c-0.3,0.2-0.5,0.4-0.7,0.5s-0.4,0.3-0.6,0.5c-0.5,0.4-0.8,0.7-0.9,1
					c-0.1,0.3-0.2,0.5-0.2,0.8s0.1,0.5,0.2,0.8c0.2,0.3,0.3,0.6,0.5,0.9v0.2l-0.4,0.4H585c-0.1-0.1-0.2-0.3-0.4-0.6
					c-0.2-0.3-0.4-0.6-0.6-0.9c-0.2-0.3-0.4-0.6-0.6-0.9c-0.2-0.3-0.3-0.5-0.4-0.6l-0.4-0.5c-0.1-0.1-0.2-0.3-0.4-0.6
					c-0.2-0.3-0.4-0.6-0.6-0.9c-0.2-0.3-0.4-0.6-0.6-0.9c-0.2-0.3-0.3-0.5-0.4-0.6v-0.1l0.6-0.3l0.2,0.1c0.2,0.3,0.4,0.6,0.6,0.8
					c0.2,0.2,0.4,0.4,0.7,0.5c0.2,0.1,0.5,0.1,0.8,0.1s0.7-0.2,1.3-0.5c0.1-0.1,0.3-0.2,0.5-0.3c0.2-0.1,0.4-0.2,0.7-0.4
					c0.3-0.2,0.6-0.4,0.9-0.6c0.4-0.3,0.8-0.6,1.4-0.9l5.6-3.8c0.6-0.4,1.2-0.8,1.6-1.1s0.8-0.6,1.1-0.8c0.3-0.2,0.6-0.4,0.8-0.6
					s0.4-0.3,0.6-0.5c0.5-0.4,0.7-0.7,0.9-1c0.1-0.3,0.2-0.5,0.2-0.8s-0.1-0.5-0.2-0.8c-0.1-0.3-0.3-0.6-0.5-0.9v-0.2l0.4-0.4h0.1
					c0.1,0.1,0.2,0.3,0.4,0.6c0.2,0.3,0.4,0.6,0.6,0.9c0.2,0.3,0.4,0.6,0.6,0.9c0.2,0.3,0.3,0.5,0.4,0.6l0.4,0.5
					c0.1,0.1,0.2,0.3,0.4,0.6c0.2,0.3,0.4,0.6,0.6,0.9c0.2,0.3,0.4,0.6,0.6,0.9C603,157.4,603.1,157.6,603.2,157.8L603.2,157.8z"/>
			</g>
			<g>
				<path d="M618.2,183.3c0.8,1.6,1.2,3.1,1.3,4.6s-0.2,2.9-0.7,4.2c-0.5,1.3-1.3,2.5-2.3,3.5s-2.2,1.9-3.5,2.6s-2.7,1.1-4.1,1.3
					c-1.4,0.2-2.8,0.1-4.2-0.3s-2.6-1-3.8-2s-2.2-2.3-3-3.9s-1.2-3.1-1.3-4.6s0.2-2.8,0.7-4.1c0.5-1.3,1.3-2.4,2.3-3.4
					s2.2-1.8,3.5-2.5c1.4-0.7,2.9-1.2,4.3-1.3c1.5-0.2,2.9-0.1,4.2,0.3s2.6,1,3.7,2C616.4,180.5,617.4,181.7,618.2,183.3z
					 M599.6,192.5c0.6,1.2,1.3,2.1,2.3,2.8c0.9,0.7,1.9,1.2,3,1.4c1.1,0.2,2.2,0.3,3.4,0.1c1.2-0.2,2.4-0.6,3.6-1.2
					c1.2-0.6,2.2-1.3,3.1-2.2c0.9-0.9,1.5-1.8,1.9-2.9c0.4-1,0.6-2.1,0.6-3.3c0-1.2-0.4-2.3-1-3.5s-1.3-2.1-2.2-2.8
					c-0.9-0.7-1.9-1.2-2.9-1.4c-1.1-0.2-2.2-0.3-3.4-0.1c-1.2,0.2-2.4,0.6-3.6,1.2c-1.3,0.7-2.4,1.4-3.3,2.3
					c-0.9,0.9-1.5,1.8-1.9,2.9c-0.4,1-0.6,2.1-0.5,3.2C598.7,190.3,599,191.4,599.6,192.5z"/>
			</g>
			<g>
				<path d="M636.5,232.1l-0.6,0.1l-0.2-0.1c-0.1-0.3-0.2-0.7-0.3-1s-0.3-0.5-0.5-0.6s-0.4-0.2-0.7-0.3s-0.7,0-1.3,0.1
					c-0.3,0.1-0.6,0.1-0.8,0.2c-0.3,0.1-0.6,0.2-0.9,0.2c-0.3,0.1-0.8,0.2-1.3,0.4s-1.1,0.3-1.9,0.6l-5.6,1.7
					c-1.2,0.4-2.2,0.7-2.9,0.9c-0.8,0.2-1.4,0.5-2,0.6c-0.5,0.2-1,0.3-1.4,0.5s-0.9,0.3-1.4,0.5l-0.2-0.2l-0.6-2l0.3-0.4l13.5-16.6
					c-0.2,0.1-0.4,0.1-0.6,0.2c-0.2,0.1-0.5,0.1-0.8,0.2c-0.3,0.1-0.7,0.2-1.1,0.3c-0.4,0.1-0.9,0.3-1.5,0.5l-5.9,1.8
					c-0.3,0.1-0.6,0.2-1,0.3s-0.8,0.3-1.3,0.4c-0.4,0.1-0.9,0.3-1.3,0.4c-0.4,0.1-0.7,0.3-1,0.4c-0.5,0.2-0.9,0.4-1.1,0.6
					c-0.2,0.2-0.4,0.5-0.5,0.7s-0.1,0.5,0,0.7c0,0.3,0.1,0.6,0.3,1.1l-0.1,0.2l-0.5,0.3l-0.1-0.1c0-0.1-0.1-0.4-0.2-0.7
					c-0.1-0.3-0.2-0.6-0.3-1c-0.1-0.3-0.2-0.7-0.3-1s-0.2-0.5-0.2-0.7l-0.2-0.6c0-0.1-0.1-0.4-0.2-0.7c-0.1-0.3-0.2-0.7-0.3-1.1
					c-0.1-0.4-0.2-0.7-0.3-1.1c-0.1-0.3-0.2-0.6-0.2-0.7V217l0.6-0.1l0.2,0.1c0.1,0.4,0.2,0.7,0.3,1s0.3,0.5,0.5,0.6
					s0.4,0.2,0.7,0.3s0.8,0.1,1.4-0.1c0.2,0,0.3-0.1,0.5-0.1c0.2-0.1,0.5-0.1,0.8-0.2c0.3-0.1,0.7-0.2,1.1-0.3
					c0.4-0.1,1-0.3,1.6-0.5l6.5-2c0.7-0.2,1.4-0.4,1.9-0.6c0.5-0.2,0.9-0.3,1.3-0.4c0.4-0.1,0.7-0.2,0.9-0.3
					c0.3-0.1,0.5-0.2,0.8-0.3c0.4-0.2,0.8-0.4,1-0.6c0.3-0.2,0.4-0.5,0.5-0.7s0.1-0.5,0-0.8s-0.1-0.6-0.3-1l0.1-0.2l0.5-0.3h0.1
					c0,0.2,0.1,0.4,0.2,0.7c0.1,0.3,0.1,0.6,0.2,0.9c0.1,0.3,0.1,0.6,0.2,0.9c0.1,0.3,0.1,0.5,0.2,0.7l0.3,1.1
					c0.1,0.2,0.1,0.4,0.2,0.7c0.1,0.3,0.2,0.5,0.3,0.7v0.2c-0.3,0.2-0.6,0.5-1.1,0.9c-0.4,0.4-0.9,0.9-1.4,1.5s-1.1,1.2-1.7,1.8
					c-0.6,0.7-1.2,1.3-1.7,2c-2.1,2.4-3.8,4.5-5,6.2c-1.3,1.7-2.1,2.8-2.5,3.3c0.1,0,0.3-0.1,0.4-0.1c0.1,0,0.3-0.1,0.5-0.1
					c0.2-0.1,0.4-0.1,0.6-0.2c0.3-0.1,0.6-0.2,1-0.3l6.5-2c0.7-0.2,1.4-0.4,1.9-0.6c0.5-0.2,0.9-0.3,1.3-0.4
					c0.4-0.1,0.7-0.2,0.9-0.3c0.3-0.1,0.5-0.2,0.8-0.3c0.6-0.2,1-0.5,1.2-0.7s0.3-0.4,0.4-0.7c0.1-0.2,0.1-0.5,0-0.8s-0.1-0.6-0.3-1
					l0.1-0.2l0.5-0.3h0.1c0,0.1,0.1,0.4,0.2,0.6c0.1,0.3,0.1,0.6,0.2,0.9c0.1,0.3,0.1,0.6,0.2,0.9c0.1,0.3,0.1,0.5,0.2,0.6l0.5,1.5
					c0,0.1,0.1,0.4,0.2,0.6c0.1,0.3,0.2,0.6,0.3,0.9c0.1,0.3,0.2,0.6,0.3,0.8c0.1,0.3,0.2,0.5,0.3,0.6L636.5,232.1z"/>
			</g>
		</g>
	</g>
</g>
</svg>
